<svg width="73" height="73" viewBox="0 0 73 73" fill="none" xmlns="http://www.w3.org/2000/svg">
<path d="M65.5 58.9859C53.2565 73.2351 41.6237 76.7879 20.9611 68.0732C0.496307 59.4415 -4.7109 32.3212 6.50308 16.2078C18.9677 -1.70374 36.0125 -4.5141 55.2439 6.51213C74.4753 17.5384 77.7436 44.7366 65.5 58.9859Z" fill="#1D2CE9"/>
<path d="M43.4849 35.8859L30.4949 48.8759C29.8349 49.5359 29.8349 50.6159 30.4949 51.2759C31.1549 51.9359 32.2349 51.9359 32.8949 51.2759L46.8949 37.2759C47.6649 36.5059 47.6649 35.2559 46.8949 34.4859L32.8949 20.4859C32.2349 19.8259 31.1549 19.8259 30.4949 20.4859C29.8349 21.1459 29.8349 22.2259 30.4949 22.8859L43.4849 35.8859Z" fill="white"/>
</svg>
