<svg width="81" height="76" viewBox="0 0 81 76" fill="none" xmlns="http://www.w3.org/2000/svg">
<path d="M68.1731 60.0802C54.661 73.1327 41.0432 77.4647 21.2777 66.8716C1.70141 56.3796 -2.1498 30.792 10.51 15.7877C24.5817 -0.890801 41.0519 -0.173221 59.9398 10.6534C78.3113 21.1839 84.5304 44.28 68.1731 60.0802Z" fill="#1D2CE9"/>
<path d="M32.9898 37.6782L45.9798 24.6882C46.6398 24.0282 46.6398 22.9482 45.9798 22.2882C45.3198 21.6282 44.2398 21.6282 43.5798 22.2882L29.5798 36.2882C28.8098 37.0582 28.8098 38.3082 29.5798 39.0782L43.5798 53.0782C44.2398 53.7382 45.3198 53.7382 45.9798 53.0782C46.6398 52.4182 46.6398 51.3382 45.9798 50.6782L32.9898 37.6782Z" fill="white"/>
</svg>
