<svg width="30" height="27" viewBox="0 0 30 27" fill="none" xmlns="http://www.w3.org/2000/svg">
<path fill-rule="evenodd" clip-rule="evenodd" d="M28.8912 0.0586813L0.521672 11.1494C-0.178327 11.4225 -0.172613 12.4273 0.529292 12.6936L7.44167 15.3083L10.1169 24.0285C10.2883 24.5864 10.9617 24.7929 11.4093 24.4223L15.2626 21.2392C15.6664 20.9053 16.2417 20.8889 16.6636 21.1996L23.614 26.3131C24.0921 26.6654 24.7702 26.3999 24.8902 25.8141L29.9817 0.995856C30.1131 0.356917 29.4931 -0.176819 28.8912 0.0586813ZM23.4807 5.86221L12.3312 16.3651C11.9388 16.7348 11.6864 17.2299 11.615 17.7665L11.235 20.6186C11.1845 20.9998 10.6569 21.0375 10.5531 20.6688L9.09215 15.4675C8.92548 14.874 9.16834 14.2408 9.68643 13.9165L23.196 5.48387C23.4398 5.3333 23.6893 5.66628 23.4807 5.86221Z" fill="#007FFF"/>
</svg>
