<svg width="29" height="30" viewBox="0 0 29 30" fill="none" xmlns="http://www.w3.org/2000/svg">
<path d="M28.3513 7.21241L28.3427 7.17778C27.643 4.34707 24.4889 1.30955 21.5924 0.677621L21.5597 0.670888C16.8747 -0.223629 12.1243 -0.223629 7.44028 0.670888L7.40665 0.677621C4.51107 1.30955 1.35697 4.34707 0.656383 7.17682L0.648694 7.21145C-0.216231 11.1646 -0.216231 15.1736 0.648694 19.1268L0.656383 19.1614C1.32718 21.8709 4.24679 24.769 7.03473 25.5664V28.726C7.03473 29.8697 8.42726 30.4314 9.21915 29.6061L12.4175 26.2781C13.1113 26.3166 13.8052 26.3387 14.5 26.3387C16.8584 26.3387 19.2177 26.1156 21.5597 25.6683L21.5924 25.6616C24.4889 25.0297 27.643 21.9921 28.3427 19.1614L28.3513 19.1268C29.2162 15.1736 29.2162 11.1656 28.3513 7.21241ZM25.82 18.5545C25.3529 20.4012 22.958 22.6972 21.0552 23.1213C18.5642 23.5955 16.053 23.7985 13.5447 23.7283C13.4948 23.7273 13.4467 23.7465 13.4121 23.7821C13.0565 24.1476 11.0768 26.1819 11.0768 26.1819L8.59256 28.7337C8.41092 28.9232 8.09186 28.7943 8.09186 28.5327V23.2983C8.09186 23.2118 8.03036 23.1387 7.94578 23.1213C7.94482 23.1213 7.94482 23.1213 7.94482 23.1213C6.04199 22.6972 3.64806 20.4012 3.18004 18.5545C2.40161 14.9812 2.40161 11.3589 3.18004 7.78567C3.64806 5.93892 6.04199 3.64299 7.94482 3.21882C12.2954 2.39067 16.7065 2.39067 21.0561 3.21882C22.9599 3.64299 25.3539 5.93892 25.8209 7.78567C26.5993 11.3589 26.5994 14.9812 25.82 18.5545Z" fill="#007FFF"/>
<path d="M18.6389 20.9715C18.3467 20.883 18.0671 20.8224 17.8086 20.7156C15.1254 19.6018 12.6565 18.1648 10.7008 15.9612C9.58889 14.7089 8.71819 13.294 7.98205 11.7974C7.63319 11.0876 7.33912 10.3498 7.03928 9.6169C6.76635 8.94842 7.16902 8.25781 7.59283 7.75476C7.9907 7.2825 8.50196 6.92084 9.05648 6.65441C9.48894 6.44665 9.91564 6.56592 10.2318 6.93335C10.9151 7.72687 11.5427 8.56079 12.0501 9.48128C12.3624 10.0468 12.2769 10.7384 11.7108 11.1232C11.5734 11.2164 11.4475 11.3271 11.3197 11.4319C11.2073 11.5242 11.1015 11.6185 11.0247 11.7435C10.8834 11.9734 10.8767 12.2437 10.968 12.4928C11.6666 14.4136 12.8429 15.9064 14.7746 16.7115C15.084 16.8404 15.3945 16.9904 15.75 16.9481C16.3468 16.8779 16.539 16.2238 16.9571 15.8814C17.3655 15.5467 17.8874 15.5428 18.3275 15.8218C18.7677 16.1007 19.1944 16.3998 19.6182 16.7019C20.0343 16.9991 20.4485 17.2886 20.8329 17.6272C21.202 17.9523 21.3288 18.3793 21.1212 18.8208C20.7407 19.6297 20.1871 20.3021 19.3885 20.732C19.1627 20.8532 18.8936 20.8926 18.6389 20.9715C18.3467 20.882 18.8936 20.8926 18.6389 20.9715Z" fill="#007FFF"/>
<path d="M14.5075 5.72784C18.0162 5.82595 20.8993 8.15747 21.5163 11.6297C21.622 12.2213 21.6585 12.8263 21.7056 13.4265C21.7248 13.6794 21.5826 13.9189 21.3096 13.9218C21.0281 13.9257 20.9022 13.69 20.8839 13.4371C20.8474 12.9369 20.8224 12.4358 20.7542 11.9395C20.3909 9.32323 18.3064 7.15811 15.7049 6.6945C15.3138 6.62429 14.913 6.60601 14.5161 6.56465C14.2653 6.53868 13.9366 6.52329 13.8819 6.21069C13.8348 5.94907 14.0558 5.74131 14.3047 5.72784C14.371 5.72496 14.4393 5.72784 14.5075 5.72784C14.5671 5.72688 14.4393 5.72784 14.5075 5.72784Z" fill="#007FFF"/>
<path d="M19.84 12.6463C19.8342 12.6905 19.8314 12.7935 19.8054 12.8906C19.7122 13.2436 19.1779 13.2869 19.0548 12.932C19.0183 12.8262 19.0126 12.7059 19.0126 12.5924C19.0116 11.8489 18.8501 11.1054 18.4753 10.4581C18.09 9.7925 17.5018 9.23367 16.8108 8.8951C16.3938 8.69022 15.9421 8.56326 15.4846 8.48727C15.2847 8.45457 15.0829 8.43437 14.8821 8.40648C14.6389 8.37282 14.5082 8.217 14.5197 7.9775C14.5303 7.75242 14.6947 7.59083 14.9397 7.6043C15.7451 7.65047 16.5225 7.82456 17.2385 8.20353C18.6945 8.97493 19.5258 10.1936 19.7689 11.8201C19.7795 11.8941 19.7977 11.9663 19.8035 12.0403C19.8169 12.2231 19.8256 12.4058 19.84 12.6463C19.8342 12.6905 19.8256 12.4058 19.84 12.6463Z" fill="#007FFF"/>
<path d="M17.6585 12.5621C17.3653 12.5669 17.2077 12.4043 17.177 12.135C17.1558 11.9474 17.1395 11.757 17.0943 11.5742C17.0059 11.2145 16.8147 10.8807 16.5129 10.6605C16.3697 10.5566 16.2083 10.4806 16.0391 10.4316C15.8239 10.369 15.5999 10.3864 15.3856 10.3335C15.1521 10.2757 15.0233 10.0872 15.0598 9.86792C15.0935 9.66882 15.2866 9.513 15.5048 9.52839C16.8656 9.6265 17.8372 10.3306 17.9766 11.934C17.9862 12.0475 17.9977 12.1667 17.9727 12.2745C17.9285 12.4601 17.792 12.5524 17.6585 12.5621C17.3644 12.5669 17.792 12.5524 17.6585 12.5621Z" fill="#007FFF"/>
</svg>
