<svg width="26" height="26" viewBox="0 0 26 26" fill="none" xmlns="http://www.w3.org/2000/svg">
<path d="M0 26L1.82067 19.5401C0.650122 17.5528 0.0334442 15.2917 0.0334442 12.9694C0.0334442 5.81779 5.85762 0 13.0171 0C20.1766 0 26.0008 5.81779 26.0008 12.9694C26.0008 20.1211 20.1766 25.9389 13.0171 25.9389C10.7861 25.9389 8.60249 25.3685 6.67007 24.2856L0 26ZM7.01022 21.9259L7.40747 22.1679C9.09192 23.1954 11.0317 23.7381 13.0163 23.7381C18.9612 23.7381 23.7976 18.907 23.7976 12.9686C23.7976 7.03024 18.9612 2.20001 13.0171 2.20001C7.07303 2.20001 2.23586 7.03106 2.23586 12.9694C2.23586 15.0383 2.82481 17.0476 3.93825 18.7799L4.20581 19.1963L3.1568 22.9159L7.01022 21.9259Z" fill="#007FFF"/>
<path d="M9.36898 6.93391L8.52635 6.88828C8.26206 6.87362 8.00185 6.96243 7.802 7.13599C7.39333 7.49043 6.74076 8.17488 6.54009 9.06792C6.24073 10.3985 6.70324 12.0282 7.89989 13.6578C9.09654 15.2874 11.3259 17.8948 15.2682 19.0087C16.5391 19.3672 17.5383 19.1252 18.3092 18.6331C18.9202 18.2428 19.3411 17.6162 19.4928 16.9081L19.6274 16.2807C19.6698 16.0811 19.5686 15.879 19.3835 15.7934L16.5366 14.4824C16.3515 14.3976 16.1329 14.4514 16.0081 14.6119L14.8905 16.0591C14.8057 16.1682 14.6613 16.2114 14.5308 16.1658C13.7657 15.8969 11.2011 14.8246 9.79397 12.117C9.73279 11.9996 9.74829 11.857 9.83475 11.7568L10.9033 10.5224C11.0126 10.3961 11.0404 10.2193 10.9743 10.0661L9.74666 7.19792C9.6814 7.04473 9.53539 6.94288 9.36898 6.93391Z" fill="#007FFF"/>
</svg>
