<svg width="131" height="112" viewBox="0 0 131 112" fill="none" xmlns="http://www.w3.org/2000/svg">
<path d="M101.771 107.02H29.2192V112H101.771V107.02Z" fill="#404EFF"/>
<path d="M109.609 59.5166L81.3521 31.1777C77.286 29.4292 66.6394 37.1107 53.4785 35.9909L93.2657 75.8618C97.7836 80.3803 105.101 80.3803 109.609 75.8618C114.127 71.3531 114.127 64.0351 109.609 59.5166Z" fill="#404EFF"/>
<path d="M68.0143 29.8025C71.2554 28.555 75.0662 27.2387 77.443 27.3271L50.1194 0L33.7764 16.355L49.3239 31.9046C53.6552 32.7493 62.033 32.101 68.0143 29.8025Z" fill="#00B4FF"/>
<path d="M128.623 103.729C128.378 103.621 103.824 92.6195 65.5 92.6195C27.0682 92.6195 2.62236 103.621 2.37682 103.729L0 98.5427C1.04109 98.0712 25.8405 86.9125 65.5 86.9125C105.159 86.9125 129.959 98.0712 131 98.5427L128.623 103.729Z" fill="#7BE400"/>
<path d="M44.2855 63.7109C44.2855 68.6616 40.2685 72.6792 35.3184 72.6792C30.3683 72.6792 26.3513 68.6616 26.3513 63.7109C26.3513 55.4106 35.3184 48.6624 35.3184 48.6624C35.3184 48.6624 44.2855 55.725 44.2855 63.7109Z" fill="#404EFF"/>
</svg>
