<svg width="109" height="118" viewBox="0 0 109 118" fill="none" xmlns="http://www.w3.org/2000/svg">
<path d="M76.4902 19.6781H0V118H76.4902V19.6781Z" fill="#404EFF"/>
<path d="M14.2548 74.769H10.7842V83.3149H5.39209V58.287H15.4705C20.4607 58.287 24.196 61.7388 24.196 66.5673C24.196 69.8421 22.4117 72.517 19.647 73.8544L25.1666 83.3149H19.1372L14.2548 74.769ZM10.7941 69.7733H15.1176C17.3725 69.7733 18.7254 68.4063 18.7254 66.5378C18.7254 64.6595 17.3725 63.2926 15.1176 63.2926H10.7941V69.7733Z" fill="white"/>
<path d="M44.4607 78.5748H34.5293L32.8137 83.3247H27.0784L36.8627 58.287H41.9607L52.0588 83.3247H46.196L44.4607 78.5748ZM36.2156 73.8545H42.7646L39.4705 64.9054L36.2156 73.8545Z" fill="white"/>
<path d="M71.0981 78.2897V83.3149H56.1177V58.287H61.5196V78.2995H71.0981V78.2897Z" fill="white"/>
<path d="M77.7843 13.9743L31.7157 0L27.5 13.9743H77.7843Z" fill="#7BE400"/>
<path d="M82.1863 15.302V112.424L109 23.4348L82.1863 15.302Z" fill="#FFE700"/>
</svg>
