<svg width="93" height="113" viewBox="0 0 93 113" fill="none" xmlns="http://www.w3.org/2000/svg">
<path d="M79.3662 108.047H13.0295V113H79.3662V108.047Z" fill="#404EFF"/>
<path d="M49.0192 92.9812H43.3572V109.336H49.0192V92.9812Z" fill="#404EFF"/>
<path d="M43.3669 63.4758L0.614014 39.2852C1.69575 32.3681 4.23929 25.9296 8.001 20.3705L43.3669 40.3795V63.4758Z" fill="#7BE400"/>
<path d="M49.0193 40.3794L84.8432 20.1653C88.6439 25.7147 91.2362 32.1238 92.3472 39.0312L49.0193 63.4855V40.3794Z" fill="#404EFF"/>
<path d="M81.2862 15.6613L49.0193 33.8726V0C61.8442 0.693671 73.2852 6.59476 81.2862 15.6613Z" fill="#404EFF"/>
<path d="M43.3669 0.0292969V33.8629L11.5386 15.8567C19.4128 6.82923 30.698 0.889058 43.3669 0.0292969Z" fill="#7BE400"/>
<path d="M0 46.4857C0 46.1437 0.0389815 45.8213 0.0487268 45.4794L43.3669 69.9826V92.9421C19.1886 91.3203 0 71.1354 0 46.4857Z" fill="#FFE700"/>
<path d="M49.0193 92.9812V69.9826L92.9319 45.2058C92.9416 45.6357 93.0001 46.0558 93.0001 46.4857C93.0001 71.3406 73.4899 91.6525 49.0193 92.9812Z" fill="#7BE400"/>
</svg>
