<svg width="131" height="109" viewBox="0 0 131 109" fill="none" xmlns="http://www.w3.org/2000/svg">
<path d="M75.9856 109C69.0671 109 62.5608 106.314 57.6344 101.434C52.6786 96.5249 49.9309 89.9627 49.8916 82.9774C49.8524 75.9921 52.5314 69.4102 57.4382 64.4418L67.5657 54.1803C74.3762 47.2836 74.337 36.1563 67.497 29.3678C64.1898 26.0817 59.8032 24.2813 55.1516 24.2813C55.1222 24.2813 55.0829 24.2813 55.0535 24.2813C50.3627 24.3108 45.9662 26.1605 42.6689 29.4957L17.203 55.3019L11.1284 49.2808L36.6042 23.4647C41.5109 18.4963 48.0467 15.7416 55.0241 15.712C55.0731 15.712 55.1124 15.712 55.1614 15.712C62.0799 15.712 68.5863 18.3979 73.5126 23.2778C83.7088 33.3917 83.7677 49.9596 73.65 60.2113L63.5127 70.4728C56.7022 77.3695 56.761 88.5263 63.6403 95.3541C66.9474 98.6402 71.334 100.441 75.9856 100.441C76.0151 100.441 76.0543 100.441 76.0838 100.441C80.7746 100.411 85.171 98.5615 88.4684 95.2262L113.944 69.4102L120.019 75.4313L94.5331 101.238C89.6362 106.206 83.0906 108.961 76.123 109C76.074 109 76.0347 109 75.9856 109Z" fill="#404EFF"/>
<path d="M75.9857 90.425C74.8179 90.425 72.5706 90.1397 70.657 88.2409C69.2144 86.8143 68.4195 84.9155 68.4097 82.879C68.3999 80.8227 69.1653 78.9534 70.6079 77.4875L80.7354 67.226C87.5067 60.3686 91.2162 51.2976 91.1966 41.6756C91.1671 32.0143 87.3791 22.9531 80.5293 16.1645C73.7286 9.42522 64.8082 5.70629 55.4068 5.70629H54.9751C45.3382 5.75548 36.3098 9.56296 29.5287 16.4302L4.05296 42.2462L0 38.2322L25.4758 12.4259C33.3265 4.46665 43.7877 0.0590306 54.9358 0H55.3774C66.3096 0 76.653 4.2994 84.5234 12.1111C92.4625 19.9819 96.8491 30.4795 96.8786 41.6658C96.908 52.8127 92.6097 63.3103 84.7687 71.2499L74.6511 81.5114C74.2683 81.905 74.1015 82.3083 74.1015 82.8593C74.1015 83.3807 74.288 83.8136 74.6609 84.1776C75.1025 84.6204 75.6226 84.7089 75.9857 84.7089C76.3488 84.7089 76.8787 84.6105 77.3301 84.158L102.796 58.3517C106.496 54.5836 111.658 52.4192 116.967 52.4192C122.256 52.4192 127.241 54.4754 131 58.2042L126.986 62.2674C124.307 59.6012 120.745 58.1353 116.967 58.1353C113.179 58.1353 109.489 59.6799 106.849 62.3658L81.3733 88.1819C79.44 90.1397 77.1633 90.425 75.9857 90.425Z" fill="#7BE400"/>
</svg>
