<svg width="113" height="130" viewBox="0 0 113 130" fill="none" xmlns="http://www.w3.org/2000/svg">
<g clip-path="url(#clip0)">
<path d="M110.25 68.3499H48.5399C42.9399 68.3499 38.3899 72.8899 38.3899 78.4999V93.8899H14.1699V71.1399C14.1699 55.9799 26.4599 43.6899 41.6199 43.6899H110.24" fill="#1D2DE9"/>
<path d="M112.75 34.98H105.75V79.51H112.75V34.98Z" fill="#1D2DE9"/>
<path d="M79.7599 45.69V34.11H48.1599V45.69" fill="#1D2DE9"/>
<path d="M51.28 38.11H56.28V29.38H71.65V38.11H76.65V24.38H51.28V38.11Z" fill="#1D2DE9"/>
<path d="M63.9599 15.64C68.2788 15.64 71.7799 12.1389 71.7799 7.82C71.7799 3.50113 68.2788 0 63.9599 0C59.641 0 56.1399 3.50113 56.1399 7.82C56.1399 12.1389 59.641 15.64 63.9599 15.64Z" fill="#7CE401"/>
<path d="M51.6401 4.31995C51.3201 5.42995 51.1401 6.60995 51.1401 7.81995C51.1401 9.02995 51.3201 10.2099 51.6401 11.3199H29.5801V4.31995H51.6401Z" fill="#1D2DE9"/>
<path d="M30.6399 105.31H23.6399V129.78H30.6399V105.31Z" fill="#28D7FF"/>
<path d="M12.1334 101.179L0.000488281 123.312L6.13879 126.677L18.2717 104.544L12.1334 101.179Z" fill="#28D7FF"/>
<path d="M42.161 101.186L36.0227 104.551L48.1556 126.684L54.2939 123.319L42.161 101.186Z" fill="#28D7FF"/>
<path d="M76.78 7.81995C76.78 6.60995 76.6 5.42995 76.28 4.31995H98.34V11.3199H76.28C76.6 10.1999 76.78 9.02995 76.78 7.81995Z" fill="#1D2DE9"/>
<path d="M63.96 20.64C64.82 20.64 65.65 20.55 66.46 20.39V26.88H61.46V20.39C62.27 20.55 63.11 20.64 63.96 20.64Z" fill="#1D2DE9"/>
</g>
<defs>
<clipPath id="clip0">
<rect width="112.75" height="129.79" fill="white"/>
</clipPath>
</defs>
</svg>
