<svg width="108" height="110" viewBox="0 0 108 110" fill="none" xmlns="http://www.w3.org/2000/svg">
<path d="M29.5337 110L26.012 107.343C26.2859 106.969 32.7717 98.3199 38.4457 95.6041C40.862 94.4528 44.4913 93.3803 49.0793 92.0322C58.1772 89.3459 70.6304 85.6757 85.0989 78.2761C86.1359 77.5676 87.8185 76.7706 89.5891 75.9243C91.3598 75.0781 94.588 73.5431 95.2728 72.6575C95.1652 70.2369 94.1087 69.4005 93.3163 68.9675C88.4446 66.3698 75.5315 71.2209 70.1413 74.7337C69.4174 75.206 68.488 75.206 67.7543 74.7337C67.0304 74.2614 66.6391 73.4053 66.7663 72.5493C66.7663 72.5493 67.2163 69.4891 67.8424 65.5137C67.9207 65.0217 68.1652 64.5593 68.537 64.2247C68.6739 64.0968 82.35 51.5903 91.4674 43.0296C100.174 34.8625 105.378 29.6966 102.864 26.5872C102.238 25.8098 101.768 25.6917 101.455 25.6721C101.416 25.6721 101.377 25.6721 101.328 25.6721C99.4793 25.6721 96.5054 28.4174 94.0989 30.6314C93.3946 31.2808 92.6902 31.9302 92.0054 32.5305C86.9478 36.9584 75.2674 44.8598 70.8652 47.4576C69.9261 48.0184 68.7326 47.7921 68.0478 46.9459C67.363 46.0997 67.3826 44.8795 68.1065 44.0726C68.1848 43.9841 76.0011 35.1774 82.6924 26.6167C83.7 25.3178 84.6978 24.0879 85.6467 22.9169C91.7609 15.3599 93.3163 12.7228 91.1446 10.9319C88.4837 8.73764 87.6815 9.26899 83.8663 13.4903L82.7022 14.7695C78.6033 19.1974 61.3663 38.395 61.2 38.582C60.525 39.3298 59.4293 39.5266 58.5391 39.0543C57.6489 38.582 57.1891 37.5586 57.4239 36.5845C57.463 36.3975 58.5587 32.0188 64.125 23.2121C65.3478 21.2933 66.688 19.3844 67.9891 17.5247C71.638 12.339 75.4141 6.9763 73.2717 5.2248C72.3033 4.42777 71.7065 4.38841 71.3152 4.44745C69.2413 4.71313 66.4239 8.55068 63.4402 12.6244L62.6478 13.7068C57.4044 20.8308 46.6826 35.9449 46.575 36.1023C46.0076 36.9092 44.9609 37.2339 44.0413 36.8994C43.112 36.5648 42.5152 35.6497 42.5837 34.6657C42.6033 34.2918 43.2293 25.5146 46.3891 18.1347C47.0935 16.4915 47.8174 15.0155 48.4728 13.6871C51.0457 8.49164 50.987 7.83237 49.5783 6.81886C49.1185 6.48431 48.7174 6.40559 48.1989 6.55319C46.3207 7.09438 43.1217 10.5777 39.7859 18.7153C38.5043 21.8444 37.5554 24.9439 36.6261 27.9352C34.7674 33.9671 33.0163 39.6545 28.9565 44.1809C25.2587 48.3136 21.375 56.0871 18.0293 66.0746C16.2587 71.3586 9.31304 79.5848 2.54348 84.4358L0 80.8246C6.55435 76.1408 12.5707 68.5444 13.8717 64.6675C16.3761 57.199 20.4554 47.0738 25.6989 41.2191C29.113 37.411 30.6489 32.4124 32.4293 26.6167C33.3783 23.527 34.3663 20.3389 35.7163 17.0228C38.1522 11.0795 42.075 3.69962 46.9761 2.28268C48.7859 1.77101 50.5663 2.07604 52.1217 3.19779C56.8761 6.60239 54.6065 11.1976 52.4054 15.6452C51.7793 16.9146 51.0848 18.3118 50.4196 19.8764C49.5978 21.7853 48.9717 23.832 48.4826 25.7803C51.9554 20.9194 56.2989 14.858 59.0967 11.0598L59.8891 9.97746C63.7533 4.70329 66.8054 0.54102 70.7576 0.0391866C72.5576 -0.187131 74.3576 0.393422 76.05 1.78084C81.3815 6.13991 76.3924 13.2246 71.5793 20.083C71.2076 20.6144 70.8261 21.1457 70.4543 21.6968C74.2598 17.4755 77.8696 13.4903 79.4739 11.7486L80.5989 10.5088C83.9935 6.74998 87.8478 2.48932 93.9326 7.50765C99.8413 12.3784 94.6076 18.8629 89.0609 25.7213C88.1217 26.8824 87.1435 28.0927 86.1554 29.362C84.6978 31.2218 83.1913 33.1012 81.7239 34.892C84.6783 32.7666 87.388 30.7002 89.1098 29.1947C89.7652 28.6142 90.4402 27.9943 91.1152 27.3744C94.5196 24.2354 98.1391 20.9784 101.768 21.2638C103.5 21.3917 105.007 22.2478 106.268 23.8025C111.512 30.287 103.989 37.3422 94.4609 46.2866C86.3902 53.8633 74.7587 64.5199 72.0685 66.9897C71.9706 67.6195 71.8728 68.2295 71.7848 68.8003C78.3196 65.6318 89.3152 61.8238 95.3804 65.0611C97.288 66.0844 99.5967 68.2492 99.6848 72.8051C99.7435 75.9735 95.9087 77.8037 91.4674 79.9292C89.912 80.677 88.2978 81.4445 87.3 82.1038C72.2446 89.8182 59.0478 93.7148 50.3022 96.2929C45.9 97.5917 42.4174 98.6151 40.3141 99.6188C36.4402 101.478 31.2163 107.746 29.5337 110Z" fill="#404EFF"/>
</svg>
