<svg width="25" height="33" viewBox="0 0 25 33" fill="none" xmlns="http://www.w3.org/2000/svg">
<path d="M4.73999 3.3463C5.35694 4.96963 6.53968 6.86548 8.79982 8.27198C9.47094 6.61934 11.1743 5.76079 12.8687 5.76079C15.0596 5.76079 16.9767 7.24934 16.9767 9.66969C16.9767 11 16.4319 11.9084 15.6314 12.679C17.0399 14.0093 18.2226 15.5037 19.1315 17.048C21.1599 15.5037 23.3658 13.7837 23.3658 9.66969C23.3658 3.48109 18.2978 0 12.9048 0C9.85014 0 6.77743 1.11348 4.73999 3.3463Z" fill="#FFE700"/>
<path d="M15.815 21.8535C15.815 19.5298 17.3438 18.39 19.0472 17.1095C19.0743 17.089 19.1044 17.0655 19.1315 17.045C18.2226 15.5008 17.0398 14.0093 15.6314 12.6761C15.1107 13.1742 14.4848 13.6167 13.8227 14.0738C11.6679 15.5623 9.22415 17.2853 9.22415 21.8535V22.8146H15.815V21.8535ZM15.9715 32.3378V25.5133H9.02853V32.3378H0V32.9971H25V32.3378H15.9715ZM8.79981 8.27196C6.53967 6.86546 5.35693 4.96962 4.73998 3.34628C3.29541 4.93153 2.37149 7.0823 2.35344 9.80153H8.49886C8.50488 9.23307 8.61623 8.72321 8.79981 8.27196Z" fill="white"/>
</svg>
