<svg width="99" height="44" viewBox="0 0 99 44" fill="none" xmlns="http://www.w3.org/2000/svg">
<g clip-path="url(#clip0_1729:651)">
<path d="M89.9841 38.4243C89.9841 35.3509 87.5368 32.8555 84.5226 32.8555C81.5085 32.8555 79.0611 35.3509 79.0611 38.4243C79.0611 39.2607 79.2479 40.0562 79.5746 40.7702L74.92 40.2534L76.8872 41.7153L70.1721 41.0761L72.6994 42.4837L32.8153 41.9805L28.4342 41.3617C28.9543 40.505 29.2611 39.5054 29.2611 38.4243C29.2611 35.3509 26.8137 32.8555 23.7996 32.8555C20.7854 32.8555 18.3381 35.3509 18.3381 38.4243C18.3381 38.9615 18.4181 39.4782 18.5582 39.9678L14.7572 39.4375L16.8244 40.7566L10.0025 40.1786L14.0703 41.7425L2.66723 41.5997L0.246582 43.9932H95.2655L95.8323 42.7964L88.8571 41.7969C89.5573 40.8654 89.9841 39.6958 89.9841 38.4243Z" fill="white"/>
<path d="M89.224 21.6158H87.8503C87.8503 21.6158 73.8599 8.31587 66.818 3.87575C63.277 1.6387 60.503 1.01314 57.9223 1.01314C51.8873 1.01314 6.42173 0 4.44786 0C2.474 0 2.38731 0.911142 2.08723 3.1414C1.70046 6.00402 0.220059 19.7391 0 37.282L17.178 38.4312C17.178 34.7118 20.1388 31.6928 23.7864 31.6928C27.4341 31.6928 30.3949 34.7118 30.3949 38.4312V38.6283L77.9143 39.4171V38.4312C77.9143 34.7118 80.8751 31.6928 84.5228 31.6928C88.1704 31.6928 91.1312 34.7118 91.1312 38.4312V39.4171C91.1312 39.4171 97.2729 39.6959 98.7333 38.3972C98.7333 38.3972 99.0067 32.8487 99.0067 30.0949C99.0067 27.3411 98.6132 26.0491 89.224 21.6158Z" fill="white"/>
<path d="M18.4116 41.7969H18.465L18.4783 41.8037L18.4116 41.7969Z" fill="#1D1D1B"/>
<path d="M57.8157 23.4576L58.4158 20.6834L56.6287 20.663L55.5284 25.8851L57.2222 25.9055L59.9363 23.1516L59.3228 25.9327L61.1232 25.9531L62.2235 20.731L60.5298 20.7106L57.8157 23.4576ZM29.7748 13.9586L31.5753 13.979L32.3422 10.2121L34.0093 10.2325L34.3227 8.77736L29.228 8.70937L28.9146 10.1645L30.5417 10.1849L29.7748 13.9586ZM86.9969 24.6952C86.9969 24.6952 77.9078 16.1141 75.7072 14.2034C73.5066 12.2927 71.5794 12.1227 69.6522 12.1227C67.725 12.1227 65.8512 11.674 65.8512 13.4691C65.8512 15.2642 66.0712 18.1336 66.0712 19.3643C66.0712 20.595 66.5647 20.935 67.9984 21.2138C69.4322 21.4994 86.9969 24.6952 86.9969 24.6952ZM33.9092 11.7148C33.9026 12.2043 33.9959 12.6327 34.196 12.9931C34.396 13.3603 34.6561 13.6323 34.9829 13.8294C35.3096 14.0266 35.6631 14.1218 36.0432 14.1286C36.6233 14.1354 37.1234 13.9518 37.5369 13.5711L37.4235 14.0606L39.1307 14.081L40.2176 8.85896L38.4238 8.83856L38.2904 9.46412C37.997 8.98135 37.4702 8.73657 36.73 8.72977C36.2232 8.72297 35.7564 8.85216 35.3296 9.11054C34.9029 9.36892 34.5561 9.7293 34.3027 10.1849C34.0493 10.6404 33.9159 11.1504 33.9092 11.7148ZM36.0832 10.5928C36.3166 10.3277 36.61 10.1985 36.9701 10.1985C37.2702 10.2053 37.5102 10.2937 37.6836 10.4773C37.857 10.6608 37.937 10.9056 37.937 11.2116C37.9303 11.64 37.8103 11.9936 37.5836 12.2587C37.3502 12.5239 37.0568 12.6599 36.6967 12.6531C36.3966 12.6463 36.1565 12.5579 35.9831 12.3811C35.8098 12.2043 35.7297 11.9596 35.7297 11.6468C35.7364 11.2116 35.8564 10.858 36.0832 10.5928ZM45.0589 13.7206C45.4724 13.4351 45.6858 13.0407 45.6924 12.5307C45.6991 12.0208 45.4857 11.6604 45.0522 11.4496C45.359 11.334 45.5924 11.164 45.7658 10.9532C45.9325 10.7424 46.0192 10.4909 46.0258 10.2053C46.0325 9.7905 45.8725 9.47772 45.5391 9.25333C45.2123 9.02895 44.7455 8.91335 44.1387 8.90655L41.4513 8.87256L40.351 14.0946L43.3051 14.1354C44.0587 14.1422 44.6388 14.0062 45.0589 13.7206ZM42.805 10.0557L43.7919 10.0693C43.9653 10.0693 44.092 10.1101 44.1854 10.1781C44.2787 10.2461 44.3187 10.3481 44.3187 10.4841C44.3187 10.6472 44.2454 10.7764 44.112 10.8716C43.9786 10.9668 43.8053 11.0144 43.5919 11.0144L42.6049 11.0008L42.805 10.0557ZM42.4049 11.9732L43.5718 11.9868C43.9253 11.9936 44.0987 12.1295 44.0987 12.4083C44.0987 12.5783 44.0253 12.7075 43.8919 12.8095C43.7586 12.9047 43.5785 12.9523 43.3518 12.9523L42.2048 12.9387L42.4049 11.9732ZM69.8256 24.498H67.1849C66.9982 24.498 66.8515 24.6476 66.8515 24.8379C66.8515 25.0283 66.9982 25.1779 67.1849 25.1779H69.8256C70.0123 25.1779 70.159 25.0283 70.159 24.8379C70.159 24.6476 70.0123 24.498 69.8256 24.498ZM52.901 13.2379C53.0944 13.6051 53.3612 13.877 53.6879 14.0742C54.0147 14.2714 54.3681 14.3666 54.7482 14.3734C55.3284 14.3802 55.8285 14.1966 56.2419 13.8158L56.1286 14.3054L57.8357 14.3258L58.9227 9.10374L57.1222 9.08334L56.9888 9.7089C56.6954 9.22613 56.1686 8.98135 55.4284 8.97455C54.9216 8.96775 54.4548 9.09694 54.028 9.35533C53.6012 9.61371 53.2545 9.97409 53.0011 10.4297C52.7477 10.8852 52.6143 11.402 52.6076 11.9664C52.6076 12.4491 52.7076 12.8707 52.901 13.2379ZM54.7882 10.8376C55.0216 10.5724 55.315 10.4365 55.6751 10.4433C55.9752 10.4501 56.2153 10.5385 56.3886 10.722C56.562 10.9056 56.642 11.1504 56.642 11.4564C56.6354 11.8848 56.5153 12.2383 56.2886 12.5035C56.0552 12.7687 55.7618 12.9047 55.4017 12.8979C55.1016 12.8911 54.8616 12.8027 54.6882 12.6259C54.5148 12.4491 54.4348 12.2043 54.4348 11.8916C54.4414 11.4564 54.5548 11.1028 54.7882 10.8376ZM28.2077 18.7659L25.407 18.7319L23.9999 25.4771L25.8738 25.5043L26.2338 23.7432L27.5609 23.7636C28.2144 23.7704 28.7945 23.6616 29.2947 23.4372C29.7948 23.2128 30.1816 22.8865 30.455 22.4649C30.7284 22.0433 30.8684 21.547 30.8751 20.9826C30.8818 20.2958 30.655 19.7587 30.1949 19.3711C29.7281 18.9767 29.0679 18.7795 28.2077 18.7659ZM28.6278 21.9617C28.4011 22.1589 28.081 22.2541 27.6609 22.2473L26.5406 22.2337L26.954 20.2618L27.941 20.2754C28.2744 20.2822 28.5345 20.3502 28.7078 20.493C28.8879 20.6358 28.9746 20.8398 28.9679 21.1186C28.9679 21.4858 28.8546 21.7645 28.6278 21.9617ZM48.4732 12.3403L49.1467 12.3471L49.8802 14.2238L51.9608 14.251L50.6671 11.6196L53.0011 9.03575L51.0472 9.00855L49.3734 10.9192L48.7666 10.9124L49.1667 8.98815L47.3662 8.96775L46.2659 14.1898L48.0664 14.2102L48.4732 12.3403ZM40.3777 21.8325C40.8511 21.8393 41.1779 22.0773 41.3646 22.5397L42.905 21.8189C42.7116 21.3634 42.4115 21.0098 41.9914 20.7582C41.5713 20.5066 41.0712 20.3774 40.491 20.3638C39.8842 20.357 39.3374 20.4794 38.8506 20.7378C38.3638 20.9962 37.977 21.3498 37.6969 21.8053C37.4169 22.2609 37.2768 22.7709 37.2702 23.342C37.2635 23.818 37.3702 24.2396 37.5902 24.6C37.8103 24.9603 38.1237 25.2459 38.5305 25.4499C38.9373 25.6539 39.4107 25.7559 39.9509 25.7627C40.511 25.7695 41.0178 25.6607 41.4646 25.4227C41.9114 25.1915 42.2648 24.8651 42.5116 24.4436L41.2045 23.614C41.0712 23.852 40.9111 24.022 40.7244 24.1308C40.5377 24.2396 40.331 24.2872 40.0842 24.2872C39.7642 24.2804 39.5174 24.1852 39.344 24.0016C39.1707 23.818 39.0906 23.5664 39.0906 23.2604C39.0973 22.8389 39.2173 22.4921 39.4574 22.2201C39.7108 21.9617 40.0109 21.8257 40.3777 21.8325ZM51.0072 23.3692L51.6073 20.595L49.8202 20.5746L48.7199 25.7967L50.4137 25.8171L53.1278 23.0633L52.5143 25.8443L54.3147 25.8647L55.415 20.6426L53.7213 20.6222L51.0072 23.3692ZM21.2592 8.82496C20.8591 8.62097 20.3856 8.51898 19.8455 8.51218C19.2453 8.50538 18.7052 8.62777 18.2184 8.88616C17.7382 9.14454 17.3581 9.49812 17.078 9.95369C16.798 10.4093 16.6579 10.9192 16.6513 11.4904C16.6446 11.9664 16.7513 12.3879 16.9647 12.7483C17.1781 13.1155 17.4915 13.3943 17.8916 13.5983C18.2917 13.8022 18.7652 13.9042 19.3053 13.911C19.9121 13.9178 20.4523 13.7954 20.9324 13.5371C21.4125 13.2787 21.7927 12.9251 22.0661 12.4627C22.3461 12.0072 22.4862 11.4904 22.4928 10.9192C22.4995 10.4433 22.3928 10.0217 22.1794 9.66131C21.966 9.30773 21.6593 9.02215 21.2592 8.82496ZM20.3189 12.0412C20.0855 12.3063 19.7921 12.4423 19.432 12.4355C19.1319 12.4355 18.8919 12.3403 18.7252 12.1635C18.5584 11.9868 18.4718 11.742 18.4784 11.4292C18.4851 10.994 18.5985 10.6404 18.8319 10.3685C19.0653 10.1033 19.3587 9.96729 19.7188 9.97409C20.0188 9.98089 20.2589 10.0693 20.4256 10.2529C20.5923 10.4365 20.679 10.6812 20.6724 10.9872C20.6657 11.4224 20.5456 11.776 20.3189 12.0412ZM35.583 20.595C35.1829 20.391 34.7095 20.289 34.1693 20.2822C33.5692 20.2754 33.029 20.3978 32.5422 20.6562C32.0621 20.9146 31.682 21.2682 31.4019 21.7237C31.1218 22.1793 30.9818 22.6893 30.9751 23.2604C30.9685 23.7364 31.0752 24.158 31.2885 24.5184C31.5019 24.8787 31.8154 25.1643 32.2155 25.3683C32.6156 25.5723 33.089 25.6743 33.6292 25.6811C34.236 25.6879 34.7761 25.5655 35.2563 25.3071C35.7364 25.0487 36.1165 24.6952 36.3899 24.2328C36.67 23.7772 36.81 23.2604 36.8167 22.6893C36.8234 22.2133 36.7167 21.7917 36.5033 21.4382C36.2899 21.0846 35.9831 20.799 35.583 20.595ZM34.6428 23.818C34.4094 24.0832 34.116 24.2192 33.7559 24.2124C33.4558 24.2056 33.2157 24.1172 33.049 23.9404C32.8823 23.7636 32.7956 23.5188 32.8023 23.206C32.809 22.7709 32.9223 22.4173 33.1557 22.1453C33.3891 21.8801 33.6825 21.7441 34.0426 21.7509C34.3427 21.7577 34.5828 21.8461 34.7495 22.0297C34.9162 22.2133 35.0029 22.4581 34.9962 22.7641C34.9895 23.1992 34.8695 23.546 34.6428 23.818ZM25.627 13.9926C26.1872 13.9994 26.694 13.8838 27.1408 13.6527C27.5875 13.4215 27.941 13.0951 28.1877 12.6735L26.8807 11.844C26.7473 12.082 26.5873 12.2519 26.4006 12.3607C26.2138 12.4695 26.0071 12.5171 25.7604 12.5171C25.4403 12.5103 25.1936 12.4151 25.0202 12.2315C24.8468 12.048 24.7668 11.7964 24.7668 11.4904C24.7735 11.0688 24.8935 10.722 25.1336 10.4501C25.3736 10.1849 25.6804 10.0489 26.0405 10.0557C26.5139 10.0625 26.8407 10.3005 27.0274 10.7628L28.5678 10.0421C28.3744 9.58651 28.0743 9.23293 27.6542 8.98135C27.2341 8.72977 26.734 8.60057 26.1538 8.58697C25.547 8.58018 25.0002 8.70257 24.5134 8.96095C24.0266 9.21933 23.6398 9.57291 23.3597 10.0285C23.0797 10.4841 22.9396 10.994 22.933 11.5652C22.9263 12.0412 23.033 12.4627 23.253 12.8231C23.4731 13.1903 23.7865 13.4691 24.1933 13.6731C24.6067 13.8838 25.0802 13.9858 25.627 13.9926ZM9.76275 13.7002L14.0039 13.7546L13.7238 15.1146L15.4376 15.135L16.0444 12.2655L15.1375 12.2519L16.2378 7.02307L10.8964 6.95508L10.3962 8.96775C10.1495 9.96049 9.87611 10.7424 9.5827 11.3136C9.28262 11.8848 8.93586 12.1703 8.54242 12.1703H8.36904L7.76221 15.0398L9.48267 15.0602L9.76275 13.7002ZM11.4365 11.1028C11.6032 10.6336 11.7766 10.0353 11.9633 9.29413L12.1634 8.48498L14.0639 8.51218L13.277 12.2315L10.843 12.1975C11.0764 11.9392 11.2698 11.572 11.4365 11.1028ZM19.6521 20.391C19.252 20.187 18.7785 20.085 18.2384 20.0782C17.6382 20.0714 17.0981 20.1938 16.6113 20.4522C16.1311 20.7106 15.751 21.0642 15.471 21.5198C15.1909 21.9753 15.0508 22.4853 15.0442 23.0565C15.0375 23.5324 15.1442 23.954 15.3576 24.3144C15.571 24.6748 15.8844 24.9603 16.2845 25.1643C16.6846 25.3683 17.1581 25.4703 17.6982 25.4771C18.305 25.4839 18.8452 25.3615 19.3253 25.1031C19.8055 24.8447 20.1856 24.4844 20.459 24.0288C20.739 23.5732 20.8791 23.0565 20.8857 22.4853C20.8924 22.0093 20.7857 21.5877 20.5723 21.2274C20.3656 20.8738 20.0522 20.595 19.6521 20.391ZM18.7118 23.6072C18.4784 23.8724 18.185 24.0084 17.8249 24.0016C17.5248 23.9948 17.2848 23.9064 17.1181 23.7296C16.9513 23.5528 16.8647 23.308 16.8713 22.9953C16.878 22.5601 16.9914 22.2065 17.2248 21.9345C17.4582 21.6693 17.7516 21.5334 18.1117 21.5402C18.4117 21.547 18.6518 21.6353 18.8185 21.8189C18.9852 22.0025 19.0719 22.2473 19.0653 22.5533C19.0586 22.9953 18.9452 23.342 18.7118 23.6072ZM8.36237 25.2731L10.1495 25.2935L10.9164 21.5266L12.6369 21.547L11.87 25.3139L13.6571 25.3343L14.7574 20.1122L9.456 20.0442L8.36237 25.2731ZM46.1525 21.9073C46.626 21.9141 46.9528 22.1521 47.1395 22.6145L48.6799 21.8937C48.4865 21.4382 48.1864 21.0846 47.7663 20.833C47.3462 20.5814 46.8461 20.4522 46.2659 20.4386C45.6591 20.4318 45.1123 20.5542 44.6255 20.8126C44.1387 21.071 43.7519 21.4246 43.4718 21.8801C43.1918 22.3357 43.0517 22.8457 43.045 23.4168C43.0384 23.8928 43.1451 24.3144 43.3651 24.6748C43.5852 25.0419 43.8986 25.3207 44.3054 25.5247C44.7122 25.7287 45.1856 25.8307 45.7258 25.8375C46.2859 25.8443 46.7927 25.7287 47.2395 25.4975C47.6863 25.2663 48.0397 24.9399 48.2865 24.5184L46.9794 23.6888C46.8461 23.9268 46.686 24.0968 46.4993 24.2056C46.3126 24.3144 46.1059 24.362 45.8591 24.362C45.539 24.3552 45.2923 24.26 45.1189 24.0764C44.9456 23.8928 44.8655 23.6412 44.8655 23.3352C44.8722 22.9137 44.9922 22.5669 45.2323 22.2949C45.4857 22.0365 45.7858 21.9005 46.1525 21.9073Z" fill="black"/>
</g>
<defs>
<clipPath id="clip0_1729:651">
<rect width="99" height="44" fill="white"/>
</clipPath>
</defs>
</svg>
