<svg width="99" height="44" viewBox="0 0 99 44" fill="none" xmlns="http://www.w3.org/2000/svg">
<g clip-path="url(#clip0)">
<path d="M89.9841 38.4243C89.9841 35.3509 87.5368 32.8555 84.5226 32.8555C81.5085 32.8555 79.0611 35.3509 79.0611 38.4243C79.0611 39.2607 79.2479 40.0562 79.5746 40.7702L74.92 40.2534L76.8872 41.7153L70.1721 41.0762L72.6994 42.4837L32.8153 41.9805L28.4342 41.3618C28.9543 40.505 29.2611 39.5055 29.2611 38.4243C29.2611 35.3509 26.8137 32.8555 23.7996 32.8555C20.7854 32.8555 18.3381 35.3509 18.3381 38.4243C18.3381 38.9615 18.4181 39.4783 18.5582 39.9678L14.7572 39.4375L16.8244 40.7566L10.0025 40.1786L14.0703 41.7425L2.66723 41.5997L0.246582 43.9932H95.2655L95.8323 42.7965L88.8571 41.7969C89.5573 40.8654 89.9841 39.6959 89.9841 38.4243Z" fill="black"/>
<path d="M89.224 21.6158H87.8503C87.8503 21.6158 73.8599 8.31587 66.818 3.87575C63.277 1.6387 60.503 1.01314 57.9223 1.01314C51.8873 1.01314 6.42173 0 4.44786 0C2.474 0 2.38731 0.911142 2.08723 3.1414C1.70046 6.00402 0.220059 19.7391 0 37.282L17.178 38.4312C17.178 34.7118 20.1388 31.6928 23.7864 31.6928C27.4341 31.6928 30.3949 34.7118 30.3949 38.4312V38.6283L77.9143 39.4171V38.4312C77.9143 34.7118 80.8751 31.6928 84.5228 31.6928C88.1704 31.6928 91.1312 34.7118 91.1312 38.4312V39.4171C91.1312 39.4171 97.2729 39.6959 98.7333 38.3972C98.7333 38.3972 99.0067 32.8487 99.0067 30.0949C99.0067 27.3411 98.6132 26.0491 89.224 21.6158Z" fill="#1D2CE9"/>
<path d="M18.4116 41.7969H18.465L18.4783 41.8037L18.4116 41.7969Z" fill="#1D1D1B"/>
<path d="M57.8157 23.4585L58.4158 20.6843L56.6287 20.6639L55.5284 25.8859L57.2222 25.9063L59.9363 23.1525L59.3228 25.9335L61.1232 25.9539L62.2235 20.7319L60.5298 20.7115L57.8157 23.4585ZM29.7748 13.9595L31.5753 13.9799L32.3422 10.2129L34.0093 10.2333L34.3227 8.77822L29.228 8.71022L28.9146 10.1653L30.5417 10.1857L29.7748 13.9595ZM86.9969 24.696C86.9969 24.696 77.9078 16.115 75.7072 14.2043C73.5066 12.2936 71.5794 12.1236 69.6522 12.1236C67.725 12.1236 65.8512 11.6748 65.8512 13.4699C65.8512 15.265 66.0712 18.1344 66.0712 19.3651C66.0712 20.5959 66.5647 20.9358 67.9984 21.2146C69.4322 21.5002 86.9969 24.696 86.9969 24.696ZM33.9092 11.7156C33.9026 12.2052 33.9959 12.6336 34.196 12.9939C34.396 13.3611 34.6561 13.6331 34.9829 13.8303C35.3096 14.0275 35.6631 14.1227 36.0432 14.1295C36.6233 14.1363 37.1234 13.9527 37.5369 13.5719L37.4235 14.0615L39.1307 14.0819L40.2176 8.85981L38.4238 8.83941L38.2904 9.46497C37.997 8.9822 37.4702 8.73742 36.73 8.73062C36.2232 8.72382 35.7564 8.85301 35.3296 9.1114C34.9029 9.36978 34.5561 9.73016 34.3027 10.1857C34.0493 10.6413 33.9159 11.1513 33.9092 11.7156ZM36.0832 10.5937C36.3166 10.3285 36.61 10.1993 36.9701 10.1993C37.2702 10.2061 37.5102 10.2945 37.6836 10.4781C37.857 10.6617 37.937 10.9065 37.937 11.2125C37.9303 11.6408 37.8103 11.9944 37.5836 12.2596C37.3502 12.5248 37.0568 12.6608 36.6967 12.654C36.3966 12.6472 36.1565 12.5588 35.9831 12.382C35.8098 12.2052 35.7297 11.9604 35.7297 11.6476C35.7364 11.2125 35.8564 10.8589 36.0832 10.5937ZM45.0589 13.7215C45.4724 13.4359 45.6858 13.0415 45.6924 12.5316C45.6991 12.0216 45.4857 11.6612 45.0522 11.4504C45.359 11.3349 45.5924 11.1649 45.7658 10.9541C45.9325 10.7433 46.0192 10.4917 46.0258 10.2061C46.0325 9.79135 45.8725 9.47857 45.5391 9.25419C45.2123 9.0298 44.7455 8.91421 44.1387 8.90741L41.4513 8.87341L40.351 14.0955L43.3051 14.1363C44.0587 14.1431 44.6388 14.0071 45.0589 13.7215ZM42.805 10.0565L43.7919 10.0701C43.9653 10.0701 44.092 10.1109 44.1854 10.1789C44.2787 10.2469 44.3187 10.3489 44.3187 10.4849C44.3187 10.6481 44.2454 10.7773 44.112 10.8725C43.9786 10.9677 43.8053 11.0153 43.5919 11.0153L42.6049 11.0017L42.805 10.0565ZM42.4049 11.974L43.5718 11.9876C43.9253 11.9944 44.0987 12.1304 44.0987 12.4092C44.0987 12.5792 44.0253 12.7084 43.8919 12.8104C43.7586 12.9056 43.5785 12.9532 43.3518 12.9532L42.2048 12.9396L42.4049 11.974ZM69.8256 24.4988H67.1849C66.9982 24.4988 66.8515 24.6484 66.8515 24.8388C66.8515 25.0292 66.9982 25.1788 67.1849 25.1788H69.8256C70.0123 25.1788 70.159 25.0292 70.159 24.8388C70.159 24.6484 70.0123 24.4988 69.8256 24.4988ZM52.901 13.2387C53.0944 13.6059 53.3612 13.8779 53.6879 14.0751C54.0147 14.2723 54.3681 14.3675 54.7482 14.3743C55.3284 14.3811 55.8285 14.1975 56.2419 13.8167L56.1286 14.3063L57.8357 14.3267L58.9227 9.1046L57.1222 9.0842L56.9888 9.70976C56.6954 9.22699 56.1686 8.9822 55.4284 8.9754C54.9216 8.9686 54.4548 9.0978 54.028 9.35618C53.6012 9.61456 53.2545 9.97494 53.0011 10.4305C52.7477 10.8861 52.6143 11.4029 52.6076 11.9672C52.6076 12.45 52.7076 12.8716 52.901 13.2387ZM54.7882 10.8385C55.0216 10.5733 55.315 10.4373 55.6751 10.4441C55.9752 10.4509 56.2153 10.5393 56.3886 10.7229C56.562 10.9065 56.642 11.1513 56.642 11.4572C56.6354 11.8856 56.5153 12.2392 56.2886 12.5044C56.0552 12.7696 55.7618 12.9056 55.4017 12.8988C55.1016 12.892 54.8616 12.8036 54.6882 12.6268C54.5148 12.45 54.4348 12.2052 54.4348 11.8924C54.4414 11.4572 54.5548 11.1037 54.7882 10.8385ZM28.2077 18.7668L25.407 18.7328L23.9999 25.478L25.8738 25.5052L26.2338 23.7441L27.5609 23.7645C28.2144 23.7713 28.7945 23.6625 29.2947 23.4381C29.7948 23.2137 30.1816 22.8873 30.455 22.4657C30.7284 22.0442 30.8684 21.5478 30.8751 20.9834C30.8818 20.2967 30.655 19.7595 30.1949 19.3719C29.7281 18.9776 29.0679 18.7804 28.2077 18.7668ZM28.6278 21.9626C28.4011 22.1598 28.081 22.255 27.6609 22.2482L26.5406 22.2346L26.954 20.2627L27.941 20.2763C28.2744 20.2831 28.5345 20.3511 28.7078 20.4939C28.8879 20.6367 28.9746 20.8407 28.9679 21.1194C28.9679 21.4866 28.8546 21.7654 28.6278 21.9626ZM48.4732 12.3412L49.1467 12.348L49.8802 14.2247L51.9608 14.2519L50.6671 11.6204L53.0011 9.0366L51.0472 9.0094L49.3734 10.9201L48.7666 10.9133L49.1667 8.989L47.3662 8.9686L46.2659 14.1907L48.0664 14.2111L48.4732 12.3412ZM40.3777 21.8334C40.8511 21.8402 41.1779 22.0782 41.3646 22.5405L42.905 21.8198C42.7116 21.3642 42.4115 21.0106 41.9914 20.7591C41.5713 20.5075 41.0712 20.3783 40.491 20.3647C39.8842 20.3579 39.3374 20.4803 38.8506 20.7387C38.3638 20.997 37.977 21.3506 37.6969 21.8062C37.4169 22.2618 37.2768 22.7717 37.2702 23.3429C37.2635 23.8189 37.3702 24.2404 37.5902 24.6008C37.8103 24.9612 38.1237 25.2468 38.5305 25.4508C38.9373 25.6547 39.4107 25.7567 39.9509 25.7635C40.511 25.7703 41.0178 25.6615 41.4646 25.4236C41.9114 25.1924 42.2648 24.866 42.5116 24.4444L41.2045 23.6149C41.0712 23.8529 40.9111 24.0229 40.7244 24.1316C40.5377 24.2404 40.331 24.288 40.0842 24.288C39.7642 24.2812 39.5174 24.186 39.344 24.0024C39.1707 23.8189 39.0906 23.5673 39.0906 23.2613C39.0973 22.8397 39.2173 22.4929 39.4574 22.221C39.7108 21.9626 40.0109 21.8266 40.3777 21.8334ZM51.0072 23.3701L51.6073 20.5959L49.8202 20.5755L48.7199 25.7975L50.4137 25.8179L53.1278 23.0641L52.5143 25.8451L54.3147 25.8655L55.415 20.6435L53.7213 20.6231L51.0072 23.3701ZM21.2592 8.82581C20.8591 8.62183 20.3856 8.51983 19.8455 8.51303C19.2453 8.50623 18.7052 8.62863 18.2184 8.88701C17.7382 9.14539 17.3581 9.49897 17.078 9.95454C16.798 10.4101 16.6579 10.9201 16.6513 11.4912C16.6446 11.9672 16.7513 12.3888 16.9647 12.7492C17.1781 13.1163 17.4915 13.3951 17.8916 13.5991C18.2917 13.8031 18.7652 13.9051 19.3053 13.9119C19.9121 13.9187 20.4523 13.7963 20.9324 13.5379C21.4125 13.2795 21.7927 12.926 22.0661 12.4636C22.3461 12.008 22.4862 11.4912 22.4928 10.9201C22.4995 10.4441 22.3928 10.0225 22.1794 9.66216C21.966 9.30858 21.6593 9.023 21.2592 8.82581ZM20.3189 12.042C20.0855 12.3072 19.7921 12.4432 19.432 12.4364C19.1319 12.4364 18.8919 12.3412 18.7252 12.1644C18.5584 11.9876 18.4718 11.7428 18.4784 11.43C18.4851 10.9949 18.5985 10.6413 18.8319 10.3693C19.0653 10.1041 19.3587 9.96814 19.7188 9.97494C20.0188 9.98174 20.2589 10.0701 20.4256 10.2537C20.5923 10.4373 20.679 10.6821 20.6724 10.9881C20.6657 11.4232 20.5456 11.7768 20.3189 12.042ZM35.583 20.5959C35.1829 20.3919 34.7095 20.2899 34.1693 20.2831C33.5692 20.2763 33.029 20.3987 32.5422 20.6571C32.0621 20.9154 31.682 21.269 31.4019 21.7246C31.1218 22.1802 30.9818 22.6901 30.9751 23.2613C30.9685 23.7373 31.0752 24.1588 31.2885 24.5192C31.5019 24.8796 31.8154 25.1652 32.2155 25.3692C32.6156 25.5732 33.089 25.6751 33.6292 25.6819C34.236 25.6887 34.7761 25.5664 35.2563 25.308C35.7364 25.0496 36.1165 24.696 36.3899 24.2336C36.67 23.7781 36.81 23.2613 36.8167 22.6901C36.8234 22.2142 36.7167 21.7926 36.5033 21.439C36.2899 21.0854 35.9831 20.7999 35.583 20.5959ZM34.6428 23.8189C34.4094 24.084 34.116 24.22 33.7559 24.2132C33.4558 24.2064 33.2157 24.118 33.049 23.9413C32.8823 23.7645 32.7956 23.5197 32.8023 23.2069C32.809 22.7717 32.9223 22.4181 33.1557 22.1462C33.3891 21.881 33.6825 21.745 34.0426 21.7518C34.3427 21.7586 34.5828 21.847 34.7495 22.0306C34.9162 22.2142 35.0029 22.4589 34.9962 22.7649C34.9895 23.2001 34.8695 23.5469 34.6428 23.8189ZM25.627 13.9935C26.1872 14.0003 26.694 13.8847 27.1408 13.6535C27.5875 13.4223 27.941 13.0959 28.1877 12.6744L26.8807 11.8448C26.7473 12.0828 26.5873 12.2528 26.4006 12.3616C26.2138 12.4704 26.0071 12.518 25.7604 12.518C25.4403 12.5112 25.1936 12.416 25.0202 12.2324C24.8468 12.0488 24.7668 11.7972 24.7668 11.4912C24.7735 11.0697 24.8935 10.7229 25.1336 10.4509C25.3736 10.1857 25.6804 10.0497 26.0405 10.0565C26.5139 10.0633 26.8407 10.3013 27.0274 10.7637L28.5678 10.0429C28.3744 9.58737 28.0743 9.23379 27.6542 8.9822C27.2341 8.73062 26.734 8.60143 26.1538 8.58783C25.547 8.58103 25.0002 8.70342 24.5134 8.96181C24.0266 9.22019 23.6398 9.57377 23.3597 10.0293C23.0797 10.4849 22.9396 10.9949 22.933 11.566C22.9263 12.042 23.033 12.4636 23.253 12.824C23.4731 13.1911 23.7865 13.4699 24.1933 13.6739C24.6067 13.8847 25.0802 13.9867 25.627 13.9935ZM9.76275 13.7011L14.0039 13.7555L13.7238 15.1154L15.4376 15.1358L16.0444 12.2664L15.1375 12.2528L16.2378 7.02393L10.8964 6.95593L10.3962 8.9686C10.1495 9.96134 9.87611 10.7433 9.5827 11.3145C9.28262 11.8856 8.93586 12.1712 8.54242 12.1712H8.36904L7.76221 15.0406L9.48267 15.061L9.76275 13.7011ZM11.4365 11.1037C11.6032 10.6345 11.7766 10.0361 11.9633 9.29498L12.1634 8.48584L14.0639 8.51303L13.277 12.2324L10.843 12.1984C11.0764 11.94 11.2698 11.5728 11.4365 11.1037ZM19.6521 20.3919C19.252 20.1879 18.7785 20.0859 18.2384 20.0791C17.6382 20.0723 17.0981 20.1947 16.6113 20.4531C16.1311 20.7115 15.751 21.065 15.471 21.5206C15.1909 21.9762 15.0508 22.4861 15.0442 23.0573C15.0375 23.5333 15.1442 23.9549 15.3576 24.3152C15.571 24.6756 15.8844 24.9612 16.2845 25.1652C16.6846 25.3692 17.1581 25.4712 17.6982 25.478C18.305 25.4848 18.8452 25.3624 19.3253 25.104C19.8055 24.8456 20.1856 24.4852 20.459 24.0296C20.739 23.5741 20.8791 23.0573 20.8857 22.4861C20.8924 22.0102 20.7857 21.5886 20.5723 21.2282C20.3656 20.8746 20.0522 20.5959 19.6521 20.3919ZM18.7118 23.6081C18.4784 23.8733 18.185 24.0092 17.8249 24.0024C17.5248 23.9956 17.2848 23.9073 17.1181 23.7305C16.9513 23.5537 16.8647 23.3089 16.8713 22.9961C16.878 22.5609 16.9914 22.2074 17.2248 21.9354C17.4582 21.6702 17.7516 21.5342 18.1117 21.541C18.4117 21.5478 18.6518 21.6362 18.8185 21.8198C18.9852 22.0034 19.0719 22.2482 19.0653 22.5541C19.0586 22.9961 18.9452 23.3429 18.7118 23.6081ZM8.36237 25.274L10.1495 25.2944L10.9164 21.5274L12.6369 21.5478L11.87 25.3148L13.6571 25.3352L14.7574 20.1131L9.456 20.0451L8.36237 25.274ZM46.1525 21.9082C46.626 21.915 46.9528 22.153 47.1395 22.6153L48.6799 21.8946C48.4865 21.439 48.1864 21.0854 47.7663 20.8339C47.3462 20.5823 46.8461 20.4531 46.2659 20.4395C45.6591 20.4327 45.1123 20.5551 44.6255 20.8135C44.1387 21.0718 43.7519 21.4254 43.4718 21.881C43.1918 22.3366 43.0517 22.8465 43.045 23.4177C43.0384 23.8937 43.1451 24.3152 43.3651 24.6756C43.5852 25.0428 43.8986 25.3216 44.3054 25.5256C44.7122 25.7295 45.1856 25.8315 45.7258 25.8383C46.2859 25.8451 46.7927 25.7295 47.2395 25.4984C47.6863 25.2672 48.0397 24.9408 48.2865 24.5192L46.9794 23.6897C46.8461 23.9277 46.686 24.0976 46.4993 24.2064C46.3126 24.3152 46.1059 24.3628 45.8591 24.3628C45.539 24.356 45.2923 24.2608 45.1189 24.0772C44.9456 23.8937 44.8655 23.6421 44.8655 23.3361C44.8722 22.9145 44.9922 22.5677 45.2323 22.2958C45.4857 22.0374 45.7858 21.9014 46.1525 21.9082Z" fill="white"/>
</g>
<defs>
<clipPath id="clip0">
<rect width="99" height="44" fill="white"/>
</clipPath>
</defs>
</svg>
