<svg width="182" height="78" viewBox="0 0 182 78" fill="none" xmlns="http://www.w3.org/2000/svg">
<g clip-path="url(#clip0)">
<path d="M90.9495 51.2506H0V0L90.9495 51.2506Z" fill="#FFE700"/>
<path d="M136.427 0H90.9495V51.2506H136.427V0Z" fill="#FF0092"/>
<path d="M164.864 34.2715H90.9546V0H164.864C174.326 0 182 7.6737 182 17.1358C182 26.5978 174.326 34.2715 164.864 34.2715Z" fill="#00B4FF"/>
<path d="M136.472 0H90.9495V34.2715H136.472V0Z" fill="#B50047"/>
<path d="M90.9495 0H0V51.2506L90.9495 0Z" fill="#00B4FF"/>
<path d="M45.4773 0H0V51.2506H45.4773V0Z" fill="#00A700"/>
<path d="M0 51.2507L45.4773 25.6279V51.2507H0Z" fill="#404EFF"/>
<path d="M45.4773 0H0V25.6279L45.4773 0Z" fill="#007FFF"/>
<path d="M0 77.9141V65.4816H2.85433V70.2809H3.8546L7.32021 65.4816H10.4878L6.04208 71.5034L10.8565 77.9141H7.39094L3.76872 72.8876H2.85938V77.9141H0Z" fill="black"/>
<path d="M13.2361 77.9141V65.4816H16.1056V77.9141H13.2361Z" fill="black"/>
<path d="M22.2385 70.786V77.9141H19.369V65.4816H21.6474L27.4066 72.8017V65.4816H30.2609V77.9141H27.932L22.2385 70.786Z" fill="black"/>
<path d="M42.2693 75.3933V77.9141H33.5295V65.4816H42.1077V68.0025H36.399V70.4173H41.2994V72.7461H36.399V75.3882H42.2693V75.3933Z" fill="black"/>
<path d="M55.0658 68.0025H51.2819V77.9141H48.4124V68.0025H44.6134V65.4816H55.0658V68.0025Z" fill="black"/>
<path d="M57.809 77.9141V65.4816H60.6784V77.9141H57.809Z" fill="black"/>
<path d="M63.2195 71.5741C63.2195 70.8264 63.3559 70.0889 63.6287 69.3614C63.9015 68.6339 64.3107 67.9671 64.8563 67.3659C65.3969 66.7648 66.0536 66.2848 66.8265 65.9312C67.5995 65.5776 68.4684 65.3957 69.4333 65.3957C70.6003 65.3957 71.6158 65.6483 72.4695 66.1484C73.3284 66.6486 73.9699 67.3053 74.4044 68.1086L72.1816 69.6645C72.0048 69.2199 71.7623 68.8714 71.4541 68.6238C71.1459 68.3712 70.8075 68.1995 70.4387 68.0984C70.0699 67.9974 69.7112 67.9519 69.3626 67.9519C68.8271 67.9519 68.3522 68.058 67.943 68.2753C67.5338 68.4925 67.1953 68.7804 66.9276 69.1442C66.6598 69.5079 66.4578 69.907 66.3214 70.3515C66.185 70.7961 66.1193 71.2306 66.1193 71.665C66.1193 72.1652 66.2001 72.6451 66.3567 73.0997C66.5133 73.5544 66.7356 73.9585 67.0236 74.3071C67.3115 74.6557 67.6551 74.9335 68.0542 75.1407C68.4583 75.3427 68.9079 75.4488 69.4131 75.4488C69.7617 75.4488 70.1204 75.3933 70.4791 75.2821C70.8428 75.171 71.1762 74.9891 71.4844 74.7315C71.7926 74.4738 72.03 74.1354 72.1917 73.7161L74.556 75.1154C74.2983 75.7216 73.8891 76.242 73.3284 76.6714C72.7676 77.1058 72.1361 77.4342 71.4389 77.6615C70.7367 77.8889 70.0396 78.0051 69.3373 78.0051C68.4381 78.0051 67.6146 77.8232 66.867 77.4544C66.1193 77.0856 65.4726 76.5956 64.922 75.9843C64.3713 75.3731 63.952 74.681 63.6539 73.9181C63.371 73.1452 63.2195 72.3672 63.2195 71.5741Z" fill="black"/>
<path d="M84.5538 69.124C84.5184 69.0886 84.3921 69.0027 84.1749 68.8714C83.9577 68.735 83.695 68.5986 83.3868 68.4622C83.0786 68.3207 82.7351 68.2046 82.3613 68.1035C81.9874 68.0025 81.6136 67.957 81.2397 67.957C80.7497 67.957 80.3708 68.0429 80.1031 68.2197C79.8353 68.3915 79.6989 68.6491 79.6989 68.9825C79.6989 69.2503 79.7999 69.4675 80.0071 69.6342C80.2091 69.8009 80.5072 69.9474 80.8912 70.0687C81.2751 70.1899 81.75 70.3263 82.3107 70.4779C83.1039 70.7001 83.791 70.9527 84.377 71.2508C84.963 71.5438 85.4076 71.9227 85.7157 72.3875C86.0239 72.8522 86.1805 73.4635 86.1805 74.2263C86.1805 74.9083 86.0542 75.4943 85.8016 75.9894C85.549 76.4794 85.2004 76.8735 84.7508 77.1715C84.3012 77.4645 83.8011 77.6818 83.2453 77.8131C82.6896 77.9445 82.1137 78.0101 81.5226 78.0101C80.9164 78.0101 80.295 77.9444 79.6585 77.8182C79.0219 77.6919 78.4107 77.51 77.8297 77.2776C77.2437 77.0452 76.7082 76.7775 76.2181 76.4744L77.4609 73.9535C77.5215 74.0242 77.6781 74.1354 77.9358 74.2869C78.1934 74.4385 78.5117 74.6002 78.8906 74.7669C79.2695 74.9386 79.6939 75.0902 80.1586 75.2215C80.6234 75.3579 81.0932 75.4236 81.558 75.4236C82.0834 75.4236 82.4724 75.3428 82.72 75.1761C82.9725 75.0093 83.0988 74.7871 83.0988 74.5042C83.0988 74.2011 82.9675 73.9636 82.7048 73.7818C82.4421 73.5999 82.0834 73.4382 81.6388 73.2968C81.1892 73.1503 80.6739 72.9987 80.0879 72.8371C79.3301 72.5946 78.7037 72.3319 78.2035 72.0439C77.7085 71.761 77.3397 71.4074 77.1022 70.9932C76.8648 70.5739 76.7435 70.0586 76.7435 69.4473C76.7435 68.5683 76.9507 67.8257 77.3649 67.2296C77.7792 66.6334 78.3349 66.1788 79.0371 65.8757C79.7393 65.5726 80.5022 65.416 81.3307 65.416C81.9268 65.416 82.4926 65.4867 83.0281 65.6281C83.5636 65.7696 84.0739 65.9413 84.5538 66.1535C85.0337 66.3657 85.448 66.5779 85.7966 66.8001L84.5538 69.124Z" fill="black"/>
<path d="M95.4457 77.9141V65.4816H101.22C101.816 65.4816 102.357 65.6029 102.847 65.8504C103.337 66.098 103.766 66.4162 104.135 66.8153C104.504 67.2144 104.787 67.664 104.984 68.1641C105.181 68.6643 105.282 69.1796 105.282 69.7049C105.282 70.4071 105.115 71.079 104.782 71.7257C104.448 72.3723 103.988 72.8977 103.397 73.3018C102.806 73.706 102.114 73.9081 101.321 73.9081H98.3152V77.9192H95.4457V77.9141ZM98.3152 71.3822H101.129C101.351 71.3822 101.553 71.3215 101.735 71.2003C101.917 71.079 102.064 70.8871 102.18 70.6294C102.296 70.3718 102.357 70.0636 102.357 69.6999C102.357 69.3008 102.291 68.9775 102.165 68.73C102.038 68.4774 101.872 68.2955 101.665 68.1793C101.463 68.0631 101.245 68.0025 101.028 68.0025H98.3202V71.3822H98.3152Z" fill="black"/>
<path d="M113.122 78C112.213 78 111.379 77.8232 110.627 77.4645C109.874 77.1109 109.222 76.631 108.677 76.0298C108.126 75.4286 107.707 74.7517 107.414 73.999C107.121 73.2462 106.974 72.4683 106.974 71.66C106.974 70.8315 107.131 70.0434 107.439 69.2957C107.747 68.5481 108.182 67.8812 108.732 67.2902C109.288 66.6991 109.945 66.2343 110.702 65.8959C111.46 65.5574 112.289 65.3856 113.188 65.3856C114.112 65.3856 114.946 65.5624 115.699 65.9211C116.451 66.2798 117.098 66.7597 117.644 67.3659C118.184 67.9722 118.604 68.6541 118.897 69.4069C119.19 70.1596 119.336 70.9275 119.336 71.7105C119.336 72.539 119.185 73.3271 118.881 74.0747C118.578 74.8224 118.144 75.4893 117.588 76.0803C117.027 76.6714 116.371 77.1361 115.618 77.4797C114.865 77.8282 114.032 78 113.122 78ZM109.884 71.6953C109.884 72.1753 109.955 72.64 110.101 73.0896C110.248 73.5392 110.455 73.9383 110.733 74.2869C111.006 74.6355 111.344 74.9184 111.748 75.1255C112.152 75.3377 112.627 75.4387 113.173 75.4387C113.708 75.4387 114.183 75.3326 114.592 75.1154C115.002 74.8982 115.34 74.6052 115.608 74.2415C115.876 73.8727 116.078 73.4685 116.214 73.024C116.35 72.5794 116.416 72.1247 116.416 71.66C116.416 71.1801 116.345 70.7203 116.199 70.2758C116.052 69.8312 115.84 69.4321 115.567 69.0785C115.295 68.7249 114.951 68.447 114.542 68.2449C114.133 68.0479 113.673 67.9469 113.158 67.9469C112.607 67.9469 112.132 68.053 111.723 68.2601C111.314 68.4723 110.975 68.7552 110.707 69.1189C110.44 69.4826 110.233 69.8817 110.096 70.3162C109.96 70.7507 109.884 71.2154 109.884 71.6953Z" fill="black"/>
<path d="M121.645 77.9141V65.4816H124.514V75.3933H130.536V77.9141H121.645Z" fill="black"/>
<path d="M132.456 65.4816L135.133 70.978L137.866 65.4816H140.999L136.568 73.6757V77.9141H133.714V73.6403L129.354 65.4816H132.456Z" fill="black"/>
<path d="M152.835 77.9141V70.488L150.138 75.8833H148.582L145.904 70.488V77.9141H143.035V65.4816H146.152L149.375 71.9783L152.598 65.4816H155.715V77.9141H152.835Z" fill="black"/>
<path d="M167.703 75.3933V77.9141H158.963V65.4816H167.542V68.0025H161.833V70.4173H166.733V72.7461H161.833V75.3882H167.703V75.3933Z" fill="black"/>
<path d="M170.795 77.9141V65.4816H177.08C177.676 65.4816 178.221 65.6029 178.726 65.8504C179.227 66.098 179.656 66.4162 180.015 66.8153C180.368 67.2144 180.651 67.664 180.853 68.1641C181.055 68.6643 181.161 69.1796 181.161 69.7049C181.161 70.2051 181.076 70.6901 180.909 71.1599C180.737 71.6246 180.505 72.0439 180.202 72.4026C179.898 72.7664 179.54 73.0644 179.136 73.2968L181.869 77.9192H178.701L176.322 73.9081H173.68V77.9192H170.795V77.9141ZM173.664 71.3822H177.009C177.231 71.3822 177.433 71.3114 177.615 71.17C177.797 71.0285 177.943 70.8315 178.06 70.5739C178.176 70.3162 178.236 70.0232 178.236 69.6999C178.236 69.3513 178.171 69.0482 178.034 68.8007C177.898 68.5481 177.731 68.3561 177.524 68.2147C177.322 68.0732 177.115 68.0025 176.903 68.0025H173.664V71.3822Z" fill="black"/>
</g>
<defs>
<clipPath id="clip0">
<rect width="182" height="78" fill="white"/>
</clipPath>
</defs>
</svg>
