<svg width="132" height="56" viewBox="0 0 132 56" fill="none" xmlns="http://www.w3.org/2000/svg">
<path d="M97.4673 0H65.948V23.0333H97.4673V0Z" fill="white"/>
<path d="M97.4673 25.9429H65.948V35.8836H97.4673V25.9429Z" fill="white"/>
<path d="M120.466 0H100.411V23.0333H120.466C126.804 23.0333 132 17.8725 132 11.4993C132 5.16085 126.839 0 120.466 0Z" fill="white"/>
<path d="M15.7596 6.58095L27.4322 0H0V15.4479L12.7809 8.24351L15.7596 6.58095Z" fill="white"/>
<path d="M15.7596 9.906L0 18.773V34.8443L20.6088 23.2411L29.9953 17.9417L31.5193 17.0758V1.00439L18.7038 8.24344L15.7596 9.906Z" fill="white"/>
<path d="M31.5193 35.8835V20.4355L4.08716 35.8835H31.5193Z" fill="white"/>
<path d="M34.4287 35.8835H61.8609L34.4287 20.4355V35.8835Z" fill="white"/>
<path d="M34.4287 15.4479L61.8609 0H34.4287V15.4479Z" fill="white"/>
<path d="M0 55.1069V46.136H2.04356V49.5996H2.77093L5.26476 46.136H7.55077L4.32957 50.4656L7.79323 55.0722H5.2994L2.70165 51.4354H2.04356V55.0722H0V55.1069Z" fill="white"/>
<path d="M9.52502 55.1069V46.136H11.6032V55.1069H9.52502Z" fill="white"/>
<path d="M16.0367 49.9806V55.1069H13.9585V46.136H15.5864L19.7428 51.4007V46.136H21.7864V55.1069H20.1238L16.0367 49.9806Z" fill="white"/>
<path d="M30.4802 53.3058V55.1069H24.1764V46.136H30.3763V47.9371H26.2546V49.6689H29.7875V51.3315H26.2546V53.2365H30.4802V53.3058Z" fill="white"/>
<path d="M39.6935 47.9718H36.9572V55.1069H34.879V47.9718H32.1427V46.1707H39.6935V47.9718Z" fill="white"/>
<path d="M41.6678 55.1069V46.136H43.746V55.1069H41.6678Z" fill="white"/>
<path d="M45.5818 50.5348C45.5818 49.9806 45.6857 49.461 45.8935 48.9415C46.1013 48.4219 46.3784 47.937 46.7941 47.4868C47.1751 47.0365 47.66 46.7247 48.2142 46.4477C48.7684 46.2052 49.3918 46.0667 50.0845 46.0667C50.9158 46.0667 51.6432 46.2398 52.2666 46.6208C52.8901 46.9672 53.3404 47.4521 53.6521 48.0409L52.0588 49.1493C51.9203 48.8376 51.7471 48.5951 51.5393 48.3873C51.3315 48.2141 51.089 48.0756 50.8119 48.0063C50.5348 47.937 50.2924 47.9024 50.0499 47.9024C49.6689 47.9024 49.3225 47.9717 49.0108 48.1448C48.6991 48.2834 48.4566 48.5258 48.2834 48.7683C48.0756 49.0454 47.9371 49.3225 47.8332 49.6342C47.7293 49.9459 47.6946 50.2577 47.6946 50.5694C47.6946 50.9158 47.7639 51.2621 47.8678 51.6085C47.9717 51.9202 48.1449 52.232 48.3527 52.4744C48.5605 52.7169 48.803 52.9247 49.1147 53.0632C49.3918 53.2018 49.7382 53.2711 50.0845 53.2711C50.327 53.2711 50.6041 53.2364 50.8465 53.1671C51.1236 53.0979 51.3661 52.9593 51.5739 52.7861C51.7817 52.613 51.9549 52.3705 52.0935 52.0588L53.7907 53.0632C53.6175 53.5135 53.3057 53.8599 52.8901 54.1716C52.4745 54.4833 52.0242 54.7258 51.5393 54.899C51.0197 55.0722 50.5348 55.1414 50.0153 55.1414C49.3572 55.1414 48.7684 55.0029 48.2488 54.7604C47.6946 54.4833 47.2443 54.137 46.8633 53.6867C46.4823 53.2364 46.1706 52.7515 45.9628 52.1973C45.6857 51.6778 45.5818 51.1236 45.5818 50.5348Z" fill="white"/>
<path d="M60.9604 48.7683C60.9258 48.7337 60.8565 48.6991 60.6833 48.5952C60.5448 48.4912 60.3369 48.3873 60.1291 48.2834C59.9213 48.1795 59.6442 48.1102 59.4017 48.041C59.1247 47.9717 58.8476 47.9371 58.6051 47.9371C58.2587 47.9371 57.9816 48.0063 57.7738 48.1102C57.566 48.2488 57.4967 48.422 57.4967 48.6644C57.4967 48.8722 57.566 49.0108 57.7045 49.1493C57.8431 49.2532 58.0509 49.3918 58.328 49.4611C58.6051 49.565 58.9515 49.6342 59.3671 49.7382C59.9559 49.9113 60.4408 50.0845 60.8565 50.2923C61.2721 50.5002 61.5838 50.7773 61.8263 51.1236C62.0341 51.47 62.1727 51.8856 62.1727 52.4398C62.1727 52.9247 62.0688 53.3404 61.8956 53.7214C61.7224 54.0677 61.4453 54.3448 61.1336 54.5873C60.8218 54.7951 60.4408 54.9683 60.0598 55.0376C59.6442 55.1415 59.2286 55.1761 58.8129 55.1761C58.3626 55.1761 57.9124 55.1415 57.4621 55.0376C57.0118 54.9336 56.5615 54.8297 56.1459 54.6566C55.7303 54.4834 55.3493 54.3102 54.9683 54.0677L55.8688 52.2666C55.9034 52.3013 56.0074 52.4052 56.2152 52.5091C56.3884 52.613 56.6308 52.7515 56.9079 52.8555C57.185 52.994 57.4967 53.0979 57.8085 53.1672C58.1548 53.2711 58.4666 53.3057 58.8129 53.3057C59.1939 53.3057 59.471 53.2364 59.6442 53.1325C59.8174 53.0286 59.9213 52.8554 59.9213 52.6476C59.9213 52.4398 59.8174 52.2666 59.6442 52.1281C59.471 51.9895 59.1939 51.8856 58.8822 51.7817C58.5705 51.6778 58.1895 51.5739 57.7738 51.4353C57.2196 51.2622 56.7694 51.0543 56.423 50.8812C56.0766 50.6733 55.7995 50.4309 55.6264 50.1192C55.4532 49.8074 55.3839 49.4611 55.3839 49.0108C55.3839 48.3873 55.5224 47.8331 55.8342 47.4175C56.1459 47.0019 56.5269 46.6555 57.0465 46.4477C57.566 46.2399 58.0856 46.1013 58.709 46.1013C59.1247 46.1013 59.5403 46.136 59.9213 46.2399C60.3023 46.3438 60.6833 46.4823 61.0297 46.6209C61.376 46.7594 61.6878 46.9326 61.9302 47.0711L60.9604 48.7683Z" fill="white"/>
<path d="M68.8229 55.1069V46.136H72.9793C73.3949 46.136 73.8105 46.2399 74.1569 46.4131C74.5033 46.5863 74.815 46.8287 75.0921 47.1058C75.3692 47.3829 75.577 47.7293 75.7156 48.0756C75.8541 48.422 75.9234 48.803 75.9234 49.184C75.9234 49.7036 75.8195 50.1885 75.577 50.6387C75.3346 51.089 74.9882 51.47 74.5725 51.7818C74.1569 52.0588 73.6374 52.232 73.0832 52.232H70.9011V55.1069H68.8229ZM70.8664 50.3963H72.91C73.0832 50.3963 73.2217 50.3617 73.3603 50.2577C73.4988 50.1538 73.6027 50.0499 73.672 49.8421C73.7413 49.6689 73.8105 49.4265 73.8105 49.184C73.8105 48.9069 73.7759 48.6645 73.672 48.4913C73.5681 48.3181 73.4642 48.1795 73.3256 48.1103C73.1871 48.041 73.0139 47.9717 72.8754 47.9717H70.9357V50.3963H70.8664Z" fill="white"/>
<path d="M81.5691 55.1761C80.911 55.1761 80.3222 55.0375 79.768 54.7951C79.2138 54.5526 78.7635 54.2062 78.3479 53.756C77.9669 53.3057 77.6552 52.8208 77.4473 52.3012C77.2395 51.747 77.1356 51.1929 77.1356 50.604C77.1356 50.0152 77.2395 49.4264 77.482 48.9068C77.6898 48.3527 78.0015 47.9024 78.4172 47.4521C78.8328 47.0365 79.2831 46.6901 79.8373 46.4477C80.3915 46.2052 80.9803 46.0667 81.6384 46.0667C82.2965 46.0667 82.9199 46.2052 83.4395 46.4477C83.9937 46.6901 84.4439 47.0365 84.8249 47.4868C85.2059 47.937 85.5177 48.4219 85.7255 48.9415C85.9333 49.4957 86.0372 50.0499 86.0372 50.604C86.0372 51.1929 85.9333 51.7817 85.7255 52.3012C85.5177 52.8554 85.2059 53.3057 84.7903 53.756C84.3747 54.1716 83.9244 54.518 83.3702 54.7604C82.816 55.0722 82.2272 55.1761 81.5691 55.1761ZM79.2138 50.6387C79.2138 50.985 79.2831 51.3314 79.387 51.6431C79.4909 51.9549 79.6295 52.2666 79.8373 52.5091C80.0451 52.7515 80.2875 52.9593 80.5646 53.0979C80.8417 53.2364 81.1881 53.3403 81.6037 53.3403C81.9847 53.3403 82.3311 53.2711 82.6428 53.0979C82.9546 52.9593 83.197 52.7169 83.3702 52.4744C83.578 52.1973 83.7166 51.9202 83.8205 51.6085C83.9244 51.2968 83.959 50.9504 83.959 50.6387C83.959 50.2923 83.8898 49.9459 83.7858 49.6342C83.6819 49.3225 83.5434 49.0108 83.3356 48.7683C83.1277 48.5258 82.8853 48.318 82.6082 48.1795C82.2965 48.0409 81.9847 47.9717 81.6037 47.9717C81.2227 47.9717 80.8764 48.0409 80.5646 48.2141C80.2529 48.3527 80.0105 48.5605 79.8373 48.8376C79.6295 49.1147 79.4909 49.3918 79.387 49.7035C79.2831 49.9806 79.2138 50.2923 79.2138 50.6387Z" fill="white"/>
<path d="M87.6998 55.1069V46.136H89.778V53.2711H94.1076V55.0722H87.6998V55.1069Z" fill="white"/>
<path d="M95.493 46.1707L97.4326 50.1192L99.4069 46.1707H101.658L98.4717 52.0935V55.1415H96.4282V52.0589L93.2762 46.1707H95.493Z" fill="white"/>
<path d="M110.179 55.1069V49.7382L108.239 53.6175H107.131L105.191 49.7382V55.1069H103.113V46.136H105.364L107.685 50.8119L110.006 46.136H112.257V55.1069H110.179Z" fill="white"/>
<path d="M120.916 53.3058V55.1069H114.613V46.136H120.812V47.9371H116.691V49.6689H120.224V51.3315H116.691V53.2365H120.916V53.3058Z" fill="white"/>
<path d="M123.133 55.1069V46.136H127.67C128.086 46.136 128.502 46.2399 128.848 46.4131C129.194 46.5863 129.506 46.8287 129.783 47.1058C130.026 47.3829 130.234 47.7293 130.372 48.0756C130.511 48.422 130.58 48.803 130.58 49.184C130.58 49.5304 130.511 49.9114 130.407 50.2231C130.268 50.5695 130.13 50.8466 129.887 51.1237C129.679 51.4007 129.402 51.6086 129.125 51.7818L131.099 55.1069H128.813L127.082 52.232H125.177V55.1069H123.133ZM125.211 50.3963H127.636C127.809 50.3963 127.948 50.3617 128.086 50.2577C128.225 50.1538 128.329 50.0153 128.398 49.8421C128.467 49.6689 128.536 49.4611 128.536 49.2186C128.536 48.9762 128.502 48.7337 128.398 48.5605C128.294 48.3874 128.19 48.2488 128.017 48.1449C127.878 48.041 127.705 48.0064 127.567 48.0064H125.246V50.3963H125.211Z" fill="white"/>
</svg>
