<svg width="182" height="78" viewBox="0 0 182 78" fill="none" xmlns="http://www.w3.org/2000/svg">
<g clip-path="url(#clip0_1790:625)">
<path d="M90.9495 51.2506H0V0L90.9495 51.2506Z" fill="#FFE700"/>
<path d="M136.427 0H90.9495V51.2506H136.427V0Z" fill="#FF0092"/>
<path d="M164.864 34.2715H90.9546V0H164.864C174.326 0 182 7.6737 182 17.1358C182 26.5978 174.326 34.2715 164.864 34.2715Z" fill="#00B4FF"/>
<path d="M136.472 0H90.9495V34.2715H136.472V0Z" fill="#B50047"/>
<path d="M90.9495 0H0V51.2506L90.9495 0Z" fill="#00B4FF"/>
<path d="M45.4773 0H0V51.2506H45.4773V0Z" fill="#00A700"/>
<path d="M0 51.2498L45.4773 25.627V51.2498H0Z" fill="#404EFF"/>
<path d="M45.4773 0H0V25.6279L45.4773 0Z" fill="#007FFF"/>
<path d="M0 77.913V65.4805H2.85433V70.2797H3.8546L7.32021 65.4805H10.4878L6.04208 71.5022L10.8565 77.913H7.39094L3.76872 72.8864H2.85938V77.913H0Z" fill="white"/>
<path d="M13.2361 77.913V65.4805H16.1056V77.913H13.2361Z" fill="white"/>
<path d="M22.2385 70.7849V77.913H19.369V65.4805H21.6474L27.4066 72.8006V65.4805H30.2609V77.913H27.932L22.2385 70.7849Z" fill="white"/>
<path d="M42.2693 75.3921V77.913H33.5295V65.4805H42.1077V68.0013H36.399V70.4161H41.2994V72.745H36.399V75.3871H42.2693V75.3921Z" fill="white"/>
<path d="M55.0658 68.0013H51.2819V77.913H48.4124V68.0013H44.6134V65.4805H55.0658V68.0013Z" fill="white"/>
<path d="M57.809 77.913V65.4805H60.6784V77.913H57.809Z" fill="white"/>
<path d="M63.2195 71.5729C63.2195 70.8252 63.3559 70.0877 63.6287 69.3602C63.9015 68.6327 64.3107 67.9659 64.8563 67.3647C65.3969 66.7636 66.0536 66.2836 66.8265 65.93C67.5995 65.5764 68.4684 65.3945 69.4333 65.3945C70.6003 65.3945 71.6158 65.6471 72.4695 66.1473C73.3284 66.6474 73.9699 67.3041 74.4044 68.1074L72.1816 69.6633C72.0048 69.2188 71.7623 68.8702 71.4541 68.6226C71.1459 68.37 70.8075 68.1983 70.4387 68.0973C70.0699 67.9962 69.7112 67.9507 69.3626 67.9507C68.8271 67.9507 68.3522 68.0568 67.943 68.2741C67.5338 68.4913 67.1953 68.7792 66.9276 69.143C66.6598 69.5067 66.4578 69.9058 66.3214 70.3504C66.185 70.7949 66.1193 71.2294 66.1193 71.6638C66.1193 72.164 66.2001 72.6439 66.3567 73.0985C66.5133 73.5532 66.7356 73.9574 67.0236 74.3059C67.3115 74.6545 67.6551 74.9324 68.0542 75.1395C68.4583 75.3416 68.9079 75.4476 69.4131 75.4476C69.7617 75.4476 70.1204 75.3921 70.4791 75.2809C70.8428 75.1698 71.1762 74.9879 71.4844 74.7303C71.7926 74.4726 72.03 74.1342 72.1917 73.7149L74.556 75.1142C74.2983 75.7204 73.8891 76.2408 73.3284 76.6702C72.7676 77.1046 72.1361 77.433 71.4389 77.6603C70.7367 77.8877 70.0396 78.0039 69.3373 78.0039C68.4381 78.0039 67.6146 77.822 66.867 77.4532C66.1193 77.0844 65.4726 76.5944 64.922 75.9831C64.3713 75.3719 63.952 74.6798 63.6539 73.9169C63.371 73.144 63.2195 72.366 63.2195 71.5729Z" fill="white"/>
<path d="M84.5538 69.124C84.5184 69.0887 84.3921 69.0028 84.1749 68.8715C83.9577 68.7351 83.695 68.5987 83.3868 68.4623C83.0786 68.3208 82.7351 68.2046 82.3613 68.1036C81.9874 68.0025 81.6136 67.9571 81.2397 67.9571C80.7497 67.9571 80.3708 68.043 80.1031 68.2198C79.8353 68.3915 79.6989 68.6492 79.6989 68.9826C79.6989 69.2503 79.7999 69.4676 80.0071 69.6343C80.2091 69.801 80.5072 69.9475 80.8912 70.0687C81.2751 70.19 81.75 70.3264 82.3107 70.4779C83.1039 70.7002 83.791 70.9528 84.377 71.2509C84.963 71.5439 85.4076 71.9227 85.7157 72.3875C86.0239 72.8523 86.1805 73.4635 86.1805 74.2264C86.1805 74.9084 86.0542 75.4944 85.8016 75.9895C85.549 76.4795 85.2004 76.8735 84.7508 77.1716C84.3012 77.4646 83.8011 77.6818 83.2453 77.8132C82.6896 77.9445 82.1137 78.0102 81.5226 78.0102C80.9164 78.0102 80.295 77.9445 79.6585 77.8182C79.0219 77.6919 78.4107 77.5101 77.8297 77.2777C77.2437 77.0453 76.7082 76.7775 76.2181 76.4744L77.4609 73.9536C77.5215 74.0243 77.6781 74.1354 77.9358 74.287C78.1934 74.4386 78.5117 74.6002 78.8906 74.7669C79.2695 74.9387 79.6939 75.0902 80.1586 75.2216C80.6234 75.358 81.0932 75.4237 81.558 75.4237C82.0834 75.4237 82.4724 75.3428 82.72 75.1761C82.9725 75.0094 83.0988 74.7871 83.0988 74.5042C83.0988 74.2011 82.9675 73.9637 82.7048 73.7818C82.4421 73.6 82.0834 73.4383 81.6388 73.2968C81.1892 73.1503 80.6739 72.9988 80.0879 72.8371C79.3301 72.5946 78.7037 72.3319 78.2035 72.044C77.7085 71.7611 77.3397 71.4075 77.1022 70.9932C76.8648 70.5739 76.7435 70.0586 76.7435 69.4474C76.7435 68.5683 76.9507 67.8257 77.3649 67.2296C77.7792 66.6335 78.3349 66.1788 79.0371 65.8757C79.7393 65.5726 80.5022 65.416 81.3307 65.416C81.9268 65.416 82.4926 65.4867 83.0281 65.6282C83.5636 65.7696 84.0739 65.9414 84.5538 66.1536C85.0337 66.3658 85.448 66.5779 85.7966 66.8002L84.5538 69.124Z" fill="white"/>
<path d="M95.4457 77.913V65.4805H101.22C101.816 65.4805 102.357 65.6017 102.847 65.8493C103.337 66.0968 103.766 66.4151 104.135 66.8141C104.504 67.2132 104.787 67.6629 104.984 68.163C105.181 68.6631 105.282 69.1784 105.282 69.7038C105.282 70.406 105.115 71.0779 104.782 71.7245C104.448 72.3711 103.988 72.8965 103.397 73.3007C102.806 73.7048 102.114 73.9069 101.321 73.9069H98.3152V77.918H95.4457V77.913ZM98.3152 71.381H101.129C101.351 71.381 101.553 71.3204 101.735 71.1991C101.917 71.0779 102.064 70.8859 102.18 70.6283C102.296 70.3706 102.357 70.0625 102.357 69.6987C102.357 69.2996 102.291 68.9763 102.165 68.7288C102.038 68.4762 101.872 68.2943 101.665 68.1781C101.463 68.062 101.245 68.0013 101.028 68.0013H98.3202V71.381H98.3152Z" fill="white"/>
<path d="M113.122 77.9991C112.213 77.9991 111.379 77.8223 110.627 77.4637C109.874 77.11 109.222 76.6301 108.677 76.0289C108.126 75.4278 107.707 74.7508 107.414 73.9981C107.121 73.2454 106.974 72.4674 106.974 71.6591C106.974 70.8306 107.131 70.0425 107.439 69.2949C107.747 68.5472 108.182 67.8804 108.732 67.2893C109.288 66.6982 109.945 66.2335 110.702 65.895C111.46 65.5565 112.289 65.3848 113.188 65.3848C114.112 65.3848 114.946 65.5616 115.699 65.9203C116.451 66.2789 117.098 66.7589 117.644 67.3651C118.184 67.9713 118.604 68.6533 118.897 69.406C119.19 70.1587 119.336 70.9266 119.336 71.7096C119.336 72.5381 119.185 73.3262 118.881 74.0739C118.578 74.8216 118.144 75.4884 117.588 76.0795C117.027 76.6705 116.371 77.1353 115.618 77.4788C114.865 77.8274 114.032 77.9991 113.122 77.9991ZM109.884 71.6945C109.884 72.1744 109.955 72.6392 110.101 73.0888C110.248 73.5384 110.455 73.9375 110.733 74.2861C111.006 74.6346 111.344 74.9175 111.748 75.1247C112.152 75.3368 112.627 75.4379 113.173 75.4379C113.708 75.4379 114.183 75.3318 114.592 75.1146C115.002 74.8973 115.34 74.6043 115.608 74.2406C115.876 73.8718 116.078 73.4677 116.214 73.0231C116.35 72.5786 116.416 72.1239 116.416 71.6591C116.416 71.1792 116.345 70.7195 116.199 70.2749C116.052 69.8304 115.84 69.4313 115.567 69.0776C115.295 68.724 114.951 68.4462 114.542 68.2441C114.133 68.0471 113.673 67.946 113.158 67.946C112.607 67.946 112.132 68.0521 111.723 68.2592C111.314 68.4714 110.975 68.7543 110.707 69.1181C110.44 69.4818 110.233 69.8809 110.096 70.3153C109.96 70.7498 109.884 71.2146 109.884 71.6945Z" fill="white"/>
<path d="M121.645 77.913V65.4805H124.514V75.3921H130.536V77.913H121.645Z" fill="white"/>
<path d="M132.456 65.4805L135.133 70.9768L137.866 65.4805H140.999L136.568 73.6745V77.913H133.714V73.6392L129.354 65.4805H132.456Z" fill="white"/>
<path d="M152.835 77.913V70.4868L150.138 75.8822H148.582L145.904 70.4868V77.913H143.035V65.4805H146.152L149.375 71.9771L152.598 65.4805H155.715V77.913H152.835Z" fill="white"/>
<path d="M167.703 75.3921V77.913H158.963V65.4805H167.542V68.0013H161.833V70.4161H166.733V72.745H161.833V75.3871H167.703V75.3921Z" fill="white"/>
<path d="M170.795 77.913V65.4805H177.08C177.676 65.4805 178.221 65.6017 178.726 65.8493C179.227 66.0968 179.656 66.4151 180.015 66.8141C180.368 67.2132 180.651 67.6629 180.853 68.163C181.055 68.6631 181.161 69.1784 181.161 69.7038C181.161 70.2039 181.076 70.6889 180.909 71.1587C180.737 71.6235 180.505 72.0428 180.202 72.4015C179.898 72.7652 179.54 73.0632 179.136 73.2956L181.869 77.918H178.701L176.322 73.9069H173.68V77.918H170.795V77.913ZM173.664 71.381H177.009C177.231 71.381 177.433 71.3103 177.615 71.1688C177.797 71.0274 177.943 70.8303 178.06 70.5727C178.176 70.3151 178.236 70.0221 178.236 69.6987C178.236 69.3502 178.171 69.0471 178.034 68.7995C177.898 68.5469 177.731 68.355 177.524 68.2135C177.322 68.0721 177.115 68.0013 176.903 68.0013H173.664V71.381Z" fill="white"/>
</g>
<defs>
<clipPath id="clip0_1790:625">
<rect width="182" height="78" fill="white"/>
</clipPath>
</defs>
</svg>
