<svg width="151" height="43" viewBox="0 0 151 43" fill="none" xmlns="http://www.w3.org/2000/svg">
<path d="M75.4581 42.7089H0V0L75.4581 42.7089Z" fill="#FFE700"/>
<path d="M113.189 0H75.458V42.7089H113.189V0Z" fill="#FF0092"/>
<path d="M136.783 28.5596H75.4623V0H136.783C144.633 0 151 6.39475 151 14.2798C151 22.1648 144.633 28.5596 136.783 28.5596Z" fill="#00B4FF"/>
<path d="M113.227 0H75.458V28.5596H113.227V0Z" fill="#B50047"/>
<path d="M75.4581 0H0V42.7089L75.4581 0Z" fill="#00B4FF"/>
<path d="M37.7311 0H0V42.7089H37.7311V0Z" fill="#00A700"/>
<path d="M0 42.7089L37.7311 21.3566V42.7089H0Z" fill="#404EFF"/>
<path d="M37.7311 0H0V21.3565L37.7311 0Z" fill="#007FFF"/>
</svg>
