<svg width="70" height="64" viewBox="0 0 70 64" fill="none" xmlns="http://www.w3.org/2000/svg">
<g clip-path="url(#clip0_914_1030)">
<path d="M8.7078 44.7992L69.9978 44.7992V-0.000804901L8.7078 -0.000804901L8.7078 44.7992Z" fill="#1D2CE9"/>
<mask id="path-2-inside-1_914_1030" fill="white">
<path fill-rule="evenodd" clip-rule="evenodd" d="M0 8.87H61.29V53.67H23.8814L11.04 64V53.67H0V8.87Z"/>
</mask>
<path fill-rule="evenodd" clip-rule="evenodd" d="M0 8.87H61.29V53.67H23.8814L11.04 64V53.67H0V8.87Z" fill="white"/>
<path d="M61.29 8.87H62.29V7.87H61.29V8.87ZM0 8.87V7.87H-1V8.87H0ZM61.29 53.67V54.67H62.29V53.67H61.29ZM23.8814 53.67V52.67H23.5291L23.2546 52.8908L23.8814 53.67ZM11.04 64H10.04V66.0878L11.6668 64.7792L11.04 64ZM11.04 53.67H12.04V52.67H11.04V53.67ZM0 53.67H-1V54.67H0V53.67ZM61.29 7.87H0V9.87H61.29V7.87ZM62.29 53.67V8.87H60.29V53.67H62.29ZM23.8814 54.67H61.29V52.67H23.8814V54.67ZM23.2546 52.8908L10.4132 63.2208L11.6668 64.7792L24.5082 54.4492L23.2546 52.8908ZM12.04 64V53.67H10.04V64H12.04ZM0 54.67H11.04V52.67H0V54.67ZM-1 8.87V53.67H1V8.87H-1Z" fill="#1D2DE9" mask="url(#path-2-inside-1_914_1030)"/>
<path d="M30.6502 36.49C33.5331 36.49 35.8702 34.1529 35.8702 31.27C35.8702 28.3871 33.5331 26.05 30.6502 26.05C27.7672 26.05 25.4302 28.3871 25.4302 31.27C25.4302 34.1529 27.7672 36.49 30.6502 36.49Z" fill="#1D2CE9"/>
<path d="M47.4502 36.49C50.3332 36.49 52.6702 34.1529 52.6702 31.27C52.6702 28.3871 50.3332 26.05 47.4502 26.05C44.5673 26.05 42.2302 28.3871 42.2302 31.27C42.2302 34.1529 44.5673 36.49 47.4502 36.49Z" fill="#1D2CE9"/>
<path d="M13.8401 36.49C16.723 36.49 19.0601 34.1529 19.0601 31.27C19.0601 28.3871 16.723 26.05 13.8401 26.05C10.9572 26.05 8.62012 28.3871 8.62012 31.27C8.62012 34.1529 10.9572 36.49 13.8401 36.49Z" fill="#1D2CE9"/>
</g>
<defs>
<clipPath id="clip0_914_1030">
<rect width="70" height="64" fill="white"/>
</clipPath>
</defs>
</svg>
