<svg width="60" height="60" viewBox="0 0 60 60" fill="none" xmlns="http://www.w3.org/2000/svg">
<path d="M30 60C13.4571 60 0 46.5429 0 30C0 13.4571 13.4571 0 30 0C46.5429 0 60 13.4571 60 30C60 46.5429 46.5429 60 30 60ZM30 2.85714C15.0343 2.85714 2.85714 15.0343 2.85714 30C2.85714 44.9657 15.0343 57.1429 30 57.1429C44.9657 57.1429 57.1429 44.9657 57.1429 30C57.1429 15.0343 44.9657 2.85714 30 2.85714Z" fill="#9C9C9C"/>
<path d="M31.4284 12.9314H28.5713V31.5086H31.4284V12.9314Z" fill="#9C9C9C"/>
<path d="M47.12 30.0798H12.8857V32.937H47.12V30.0798Z" fill="#9C9C9C"/>
<path d="M42.0116 35.7085H17.9888V38.5657H42.0116V35.7085Z" fill="#9C9C9C"/>
<path d="M35.7771 41.3372H24.2285V44.1943H35.7771V41.3372Z" fill="#9C9C9C"/>
</svg>
