<svg width="60" height="60" viewBox="0 0 60 60" fill="none" xmlns="http://www.w3.org/2000/svg">
<path d="M30 60C13.4571 60 0 46.5429 0 30C0 13.4571 13.4571 0 30 0C46.5429 0 60 13.4571 60 30C60 46.5429 46.5429 60 30 60ZM30 2.85714C15.0343 2.85714 2.85714 15.0343 2.85714 30C2.85714 44.9657 15.0343 57.1429 30 57.1429C44.9657 57.1429 57.1429 44.9657 57.1429 30C57.1429 15.0343 44.9657 2.85714 30 2.85714Z" fill="#9C9C9C"/>
<path d="M37.4515 47.823L17.4172 43.7201L23.783 12.1772L43.8172 16.2801L37.4515 47.823ZM20.783 41.4915L35.2172 44.4458L40.4515 18.503L26.0172 15.5487L20.783 41.4915Z" fill="#9C9C9C"/>
<path d="M44.4913 33.7888C40.1199 33.7888 35.0227 33.1773 29.5485 31.3545C14.4342 26.3259 2.09703 31.2688 1.97131 31.3202L0.879883 28.6802C1.42274 28.4573 14.2856 23.263 30.4513 28.6459C45.617 33.6916 57.9027 28.7316 58.0227 28.6802L59.1142 31.3202C58.7599 31.4688 53.017 33.7888 44.4913 33.7888Z" fill="#9C9C9C"/>
</svg>
