<svg width="60" height="60" viewBox="0 0 60 60" fill="none" xmlns="http://www.w3.org/2000/svg">
<path d="M30 60C13.4571 60 0 46.5429 0 30C0 13.4571 13.4571 0 30 0C46.5429 0 60 13.4571 60 30C60 46.5429 46.5429 60 30 60ZM30 2.85714C15.0343 2.85714 2.85714 15.0343 2.85714 30C2.85714 44.9657 15.0343 57.1429 30 57.1429C44.9657 57.1429 57.1429 44.9657 57.1429 30C57.1429 15.0343 44.9657 2.85714 30 2.85714Z" fill="#9C9C9C"/>
<path d="M34.1485 43.8461C33.5942 44.3203 32.9028 44.6861 32.0799 44.9375C31.2571 45.1889 30.4114 45.3146 29.5371 45.3146C27.4171 45.3146 25.7771 44.7432 24.6114 43.6061C23.4456 42.4689 22.8628 40.8403 22.8628 38.7203V27.1603H19.2856V24.0232H22.8628V19.4175H26.6742V24.0232H32.7142V27.1603H26.6742V38.5603C26.6742 39.6975 26.9599 40.5718 27.5314 41.1832C28.1028 41.7946 28.9142 42.0975 29.9771 42.0975C31.1428 42.0975 32.1371 41.7661 32.9542 41.1032L34.1485 43.8461Z" fill="#9C9C9C"/>
<path d="M39.9656 29.0858C38.9713 28.5144 38.1827 27.7372 37.5999 26.7429C37.017 25.7487 36.7256 24.6572 36.7256 23.4629C36.7256 22.2972 37.017 21.2172 37.5999 20.2229C38.1827 19.2287 38.9713 18.4515 39.9656 17.8801C40.9599 17.3087 42.0513 17.0229 43.2456 17.0229C44.4399 17.0229 45.537 17.3087 46.5427 17.8801C47.5484 18.4515 48.3427 19.2287 48.9256 20.2229C49.5084 21.2172 49.7999 22.2972 49.7999 23.4629C49.7999 24.6572 49.5084 25.7487 48.9256 26.7429C48.3427 27.7372 47.5484 28.5201 46.5427 29.0858C45.537 29.6572 44.4399 29.9429 43.2456 29.9429C42.0513 29.9429 40.9599 29.6515 39.9656 29.0858ZM46.3027 26.5429C47.1256 25.7087 47.537 24.6801 47.537 23.4629C47.537 22.2458 47.1256 21.2172 46.3027 20.3829C45.4799 19.5487 44.4627 19.1315 43.2456 19.1315C42.0284 19.1315 41.0056 19.5429 40.1884 20.3658C39.3656 21.1887 38.9542 22.2229 38.9542 23.4629C38.9542 24.7029 39.3656 25.7429 40.1884 26.5601C41.0113 27.3829 42.0284 27.7944 43.2456 27.7944C44.4627 27.7944 45.4799 27.3772 46.3027 26.5429Z" fill="#9C9C9C"/>
</svg>
