<svg width="60" height="60" viewBox="0 0 60 60" fill="none" xmlns="http://www.w3.org/2000/svg">
<path d="M30 60C13.4571 60 0 46.5429 0 30C0 13.4571 13.4571 0 30 0C46.5429 0 60 13.4571 60 30C60 46.5429 46.5429 60 30 60ZM30 2.85714C15.0343 2.85714 2.85714 15.0343 2.85714 30C2.85714 44.9657 15.0343 57.1429 30 57.1429C44.9657 57.1429 57.1429 44.9657 57.1429 30C57.1429 15.0343 44.9657 2.85714 30 2.85714Z" fill="#9C9C9C"/>
<path d="M26.2798 47.7542C22.3598 46.7884 15.3084 42.577 16.697 33.5199C17.3255 29.4284 19.6855 26.7827 21.7655 24.4513C24.1941 21.7313 26.2912 19.3827 25.8455 15.0684L25.6227 12.9084L27.6969 13.5599C27.7884 13.5884 35.4969 16.1027 37.9198 23.8684L38.2112 20.9599L40.4112 23.897C40.6112 24.1599 45.2169 30.4513 42.7769 39.2742C41.0055 45.657 33.7712 47.6627 33.4627 47.7427L32.7255 44.9827C32.7827 44.9656 38.6912 43.3027 40.0227 38.5027C41.2627 34.0284 40.3769 30.3427 39.4455 28.0684C38.8798 28.7827 38.2341 29.2227 37.7712 29.4284L35.8512 30.2627L35.7712 28.1713C35.5312 21.7884 31.2798 18.5199 28.7312 17.1256C28.4169 21.2856 26.0398 23.9484 23.9027 26.3427C21.9084 28.577 20.0227 30.6913 19.5255 33.9427C18.1827 42.7085 26.6055 44.8799 26.9655 44.9713L26.2798 47.7542Z" fill="#9C9C9C"/>
<path d="M33.1888 47.5885L31.7202 45.1428L32.4574 46.3657L31.7088 45.1428C31.7888 45.0971 33.6174 43.9257 33.6231 41.7885C33.6231 40.1485 32.9717 39.2914 32.0745 38.0971C31.3374 37.1257 30.4745 35.9828 29.9374 34.2857C28.3145 35.6743 26.0917 38.1886 26.0917 41.5314C26.0917 42.0857 26.2345 43.9771 28.046 45.1657L26.4802 47.5543C24.4517 46.2228 23.2402 43.9714 23.2402 41.5314C23.2402 34.6228 29.9088 30.7371 30.1945 30.5771L32.1202 29.48L32.3259 31.6857C32.5374 33.9714 33.4231 35.1371 34.3602 36.3771C35.3602 37.6971 36.4917 39.1943 36.4859 41.7943C36.4745 45.5714 33.326 47.5085 33.1888 47.5885Z" fill="#9C9C9C"/>
<path d="M41.6515 44.9373H18.3486V47.7944H41.6515V44.9373Z" fill="#9C9C9C"/>
</svg>
