<svg width="1386" height="1073" viewBox="0 0 1386 1073" fill="none" xmlns="http://www.w3.org/2000/svg">
<path d="M1377.6 358.02C1377.6 374.04 1372.05 391.67 1348.59 387.03C1324.95 382.35 1316.66 367.75 1321.19 353.32C1325.99 338.03 1332.57 329 1348.59 329C1364.61 329 1377.6 342 1377.6 358.02Z" fill="#007FFF"/>
<path d="M1386 335.583C1386 343.539 1383.48 349.608 1371.68 349.989C1360.17 350.364 1357.25 340.707 1358.15 333.25C1359.08 325.613 1363.89 322.551 1371.68 321.176C1379.95 319.711 1386 327.626 1386 335.583Z" fill="#28D7FF"/>
<path d="M460.468 547.26C460.468 551.27 459.078 555.67 453.218 554.51C447.308 553.34 445.238 549.69 446.368 546.08C447.568 542.26 449.208 540 453.218 540C457.228 540 460.468 543.26 460.468 547.26Z" fill="#007FFF"/>
<path d="M538.219 562.2C538.219 568.38 536.079 575.19 527.029 573.39C517.909 571.59 514.709 565.95 516.459 560.38C518.309 554.48 520.849 551 527.029 551C533.209 551 538.219 556.01 538.219 562.2Z" fill="#10008F"/>
<path d="M14.3958 110.26C14.3958 114.27 13.0058 118.67 7.14582 117.51C1.23582 116.34 -0.834157 112.69 0.295843 109.08C1.49584 105.26 3.13582 103 7.14582 103C11.1458 103.01 14.3958 106.26 14.3958 110.26Z" fill="#10008F"/>
<path d="M65.8053 14.5C65.8053 22.51 63.0353 31.33 51.2953 29.01C39.4753 26.67 35.3252 19.37 37.5952 12.16C39.9952 4.52003 43.2853 0 51.2953 0C59.3053 0 65.8053 6.49 65.8053 14.5Z" fill="#10008F"/>
<path d="M278.805 1057.5C278.805 1065.51 276.035 1074.33 264.295 1072.01C252.475 1069.67 248.325 1062.37 250.595 1055.16C252.995 1047.52 256.285 1043 264.295 1043C272.305 1043 278.805 1049.48 278.805 1057.5Z" fill="#D2F7FF"/>
<path d="M1025 1062.36C1025 1068.09 1022.98 1074.39 1014.42 1072.73C1005.8 1071.06 1002.78 1065.84 1004.43 1060.69C1006.18 1055.23 1008.58 1052 1014.42 1052C1020.26 1052 1025 1056.64 1025 1062.36Z" fill="#007FFF"/>
<path d="M440.127 564.008C440.127 571.108 437.867 576.518 427.277 576.858C416.947 577.188 414.327 568.578 415.137 561.928C415.967 555.118 420.287 552.388 427.277 551.158C434.697 549.848 440.127 556.908 440.127 564.008Z" fill="#28D7FF"/>
</svg>
